M48
;GenerationSoftware,Autodesk,EAGLE,9.6.2*%
;CreationDate,2021-02-22T16:41:13Z*%
FMAT,2
ICI,OFF
METRIC,TZ,000.000
T20C0.305
T19C0.406
T18C0.508
T17C0.635
T16C0.740
T15C0.740
T14C0.900
T13C0.914
T12C1.016
T11C1.090
T10C1.110
T9C1.143
T8C1.170
T7C1.200
T6C1.524
T5C2.000
T4C2.032
T3C2.540
T2C3.302
T1C3.450
%
G90
M71
T1
X336680Y1368
X328800Y1368
T2
X142240Y93980
X322580Y93980
X139700Y7620
X7620Y7620
X285750Y27813
X170282Y27813
X170282Y92710
X292100Y7620
X304800Y31750
X285750Y92710
T3
X126111Y13716
X126111Y23876
X43053Y13716
X43053Y23876
T4
X206756Y108585
X243586Y108585
X32614Y108585
X22606Y108585
X106274Y108585
X96266Y108585
X133096Y108585
X253594Y108585
X179934Y108585
X169926Y108585
X69444Y108585
X59436Y108585
X290424Y108585
X216764Y108585
X143104Y108585
X280416Y108585
T5
X225095Y107188
X198425Y107188
X124765Y107188
X235255Y107188
X114605Y107188
X188265Y107188
X298755Y107188
X161595Y107188
X151435Y107188
X51105Y107188
X272085Y107188
X261925Y107188
X308915Y107188
X77775Y107188
X87935Y107188
X40945Y107188
X14275Y107188
X4115Y107188
T6
X67691Y111836
X288671Y111836
X245339Y105334
X298450Y62230
X298450Y50800
X251841Y111836
X298450Y54610
X171679Y105334
X298450Y46990
X104521Y111836
X178181Y111836
X98019Y105334
X298450Y58420
X298450Y69850
X215011Y111836
X134849Y105334
X24359Y105334
X61189Y105334
X298450Y73660
X30861Y111836
X298450Y66040
X141351Y111836
X208509Y105334
X282169Y105334
T7
X329184Y106934
X331724Y104394
X331724Y106934
X321564Y104394
X321564Y106934
X324104Y104394
X324104Y106934
X326644Y104394
X326644Y106934
X329184Y104394
T8
X335280Y10008
X330200Y10008
X332740Y10008
T9
X287122Y110084
X28677Y108331
X249657Y108331
X137033Y108331
X247523Y108331
X246888Y110084
X29312Y110084
X62738Y110084
X65507Y108331
X66142Y110084
X213462Y110084
X212827Y108331
X250292Y110084
X210693Y108331
X210058Y110084
X283718Y110084
X284353Y108331
X176632Y110084
X175997Y108331
X173863Y108331
X173228Y110084
X139802Y110084
X139167Y108331
X286487Y108331
X63373Y108331
X136398Y110084
X102972Y110084
X102337Y108331
X25908Y110084
X26543Y108331
X100203Y108331
X99568Y110084
T10
X60452Y9144
X93472Y9144
X96012Y9144
X98552Y9144
X62992Y9144
X103632Y9144
X106172Y9144
X108712Y9144
X65532Y9144
X78232Y9144
X80772Y9144
X83312Y9144
X85852Y9144
X101092Y9144
X88392Y9144
X90932Y9144
X73152Y9144
X75692Y9144
X68072Y9144
X70612Y9144
T11
X19050Y4064
X150114Y9144
X145034Y9144
X150114Y4064
X145034Y4064
X24130Y9144
X19050Y9144
X24130Y4064
T12
X336550Y76200
X336550Y19812
X35306Y12446
X32766Y12446
X298450Y30480
X298450Y27940
X336550Y27432
X336550Y29972
X336550Y32512
X336550Y22352
X298450Y25400
X298450Y22860
X336550Y78740
X336550Y24892
X298450Y20320
X298450Y17780
X298450Y15240
X298450Y12700
X298450Y40640
X298450Y35560
X298450Y33020
X298450Y38100
X336550Y54864
X336550Y52324
T13
X309372Y5588
X309372Y3048
X304292Y5588
X306832Y5588
X306832Y3048
X301752Y5588
X301752Y3048
X314452Y3048
X314452Y5588
X316992Y3048
X311912Y5588
X304292Y3048
X319532Y3048
X319532Y5588
X311912Y3048
X316992Y5588
T14
X119685Y102108
X190805Y102108
X117145Y102108
X9195Y102108
X303835Y102108
X82855Y102108
X230175Y102108
X227635Y102108
X80315Y102108
X193345Y102108
X156515Y102108
X153975Y102108
X267005Y102108
X264465Y102108
X301295Y102108
X43485Y102108
X6655Y102108
X46025Y102108
T15
X17526Y102108
X313461Y92304
X279146Y100330
X238506Y102108
X58166Y100330
X311201Y91008
X205486Y100330
X164846Y102108
X300660Y8128
X311150Y7874
X314630Y9627
X298602Y6401
X302675Y9068
X131826Y100330
X91186Y102108
T16
X231902Y8382
X234442Y3302
X251714Y16002
X199898Y3302
X251714Y3302
X214630Y8382
X217170Y3302
X182626Y3302
X180086Y8382
X182626Y16002
X165354Y3302
X162814Y8382
X165354Y16002
X199898Y16002
X197358Y8382
X234442Y16002
X217170Y16002
X268986Y16002
X266446Y8382
X268986Y3302
X286258Y16002
X283718Y8382
X286258Y3302
X249174Y8382
T17
X276606Y13462
X275209Y52045
X275209Y50140
X275209Y48235
X277241Y52045
X277241Y50140
X277241Y48235
X279273Y52045
X279273Y50140
X279273Y48235
X281305Y52045
X281305Y50140
X281305Y48235
X283337Y52045
X283337Y50140
X283337Y48235
X237998Y52222
X237998Y50317
X237998Y48412
X240030Y52222
X240030Y50317
X240030Y48412
X242062Y52222
X242062Y50317
X242062Y48412
X244094Y52222
X244094Y50317
X244094Y48412
X246126Y52222
X246126Y50317
X246126Y48412
X306832Y19558
X324815Y27432
X321805Y17183
X319075Y88417
X319075Y86131
X319075Y83845
X317805Y80035
X319075Y81559
X316789Y81559
X314503Y81559
X312522Y81534
X315773Y80035
X313233Y80035
X316053Y32741
X312090Y20269
X327470Y16764
X8636Y86868
X16002Y88138
X5791Y73397
X13691Y73584
X82296Y86868
X89662Y88138
X79451Y73397
X87351Y73584
X155956Y86868
X163322Y88138
X153111Y73397
X161011Y73584
X229616Y86868
X236982Y88138
X226771Y73397
X234671Y73584
X49759Y11201
X49784Y12700
X303276Y15748
X321920Y27991
X321856Y20764
X315011Y88163
X312979Y88163
X315011Y86131
X315011Y84099
X312979Y86131
X312979Y84099
X313207Y32766
X313944Y20320
X331178Y20047
X312420Y111760
X309880Y111760
X307340Y111760
X304800Y111760
X302260Y111760
X299720Y111760
X297180Y111760
X297180Y109220
X297180Y104140
X297180Y101600
X299720Y101600
X299720Y104140
X302260Y104140
X304800Y104140
X307340Y104140
X307340Y101600
X309880Y101600
X309880Y104140
X304800Y106680
X302260Y106680
X302260Y109220
X299720Y109220
X304800Y109220
X307340Y109220
X309880Y109220
X312420Y104140
X312420Y101600
X312420Y106680
X312420Y109220
X312420Y99060
X309880Y99060
X307340Y99060
X299720Y99060
X297180Y99060
X11684Y95250
X43307Y53857
X38308Y53040
X176022Y13208
X85344Y95250
X116967Y53857
X111968Y53040
X210566Y13208
X159004Y95250
X190627Y53857
X185628Y53040
X245110Y13208
X232664Y95250
X264287Y53857
X259288Y53040
X279654Y13208
X320802Y62484
X326644Y50546
X326644Y48768
X326644Y52324
X326644Y54102
X327660Y56134
X327660Y57404
X327660Y58674
X327660Y59944
X327203Y85369
X325171Y85369
X323139Y85369
X323139Y87401
X325171Y87401
X327203Y87401
X329235Y87401
X329235Y85369
X327660Y64008
X325882Y64008
X324104Y64008
X322580Y64008
X322580Y61722
X324104Y61722
X325882Y61722
X327660Y61722
X21920Y58318
X20523Y58344
X19177Y58395
X17704Y58395
X18466Y59538
X16789Y59385
X16789Y57302
X25248Y57506
X27000Y57556
X28829Y57556
X30632Y57556
X32385Y57633
X34138Y57607
X26111Y56236
X27889Y56236
X29667Y56185
X31471Y56159
X33223Y56159
X23546Y58217
X27000Y54661
X52654Y32880
X30429Y54661
X32461Y54610
X34239Y54661
X36271Y54661
X38049Y54661
X35027Y56159
X36932Y56261
X35814Y57556
X6934Y22720
X5664Y25260
X6934Y27800
X5664Y30340
X6934Y32880
X5664Y35420
X5664Y65900
X6934Y68440
X9474Y22720
X8204Y25260
X9474Y27800
X8204Y30340
X9474Y32880
X8204Y35420
X8204Y65900
X9474Y68440
X12014Y22720
X10744Y25260
X12014Y27800
X10744Y30340
X12014Y32880
X10744Y35420
X10744Y65900
X12014Y68440
X14554Y22720
X13284Y25260
X14554Y27800
X13284Y30340
X14554Y32880
X13284Y35420
X13284Y65900
X14554Y68440
X17094Y22720
X15824Y25260
X17094Y27800
X15824Y30340
X17094Y32880
X15824Y35420
X17094Y63360
X15824Y65900
X17094Y68440
X15824Y70980
X17094Y73520
X19634Y22720
X18364Y25260
X19634Y27800
X18364Y30340
X19634Y32880
X18364Y35420
X18364Y65900
X19634Y68440
X18364Y70980
X19634Y73520
X19634Y78600
X19634Y83680
X18364Y91300
X19634Y93840
X18364Y96380
X19634Y98920
X22174Y22720
X20904Y25260
X22174Y27800
X20904Y30340
X22174Y32880
X20904Y35420
X22174Y68440
X20904Y70980
X22174Y73520
X20904Y76060
X22174Y78600
X20904Y81140
X22174Y83680
X20904Y86220
X20904Y91300
X22174Y93840
X20904Y96380
X22174Y98920
X22174Y104000
X24714Y22720
X23444Y25260
X24714Y27800
X23444Y30340
X24714Y32880
X23444Y35420
X24714Y63360
X24714Y68440
X23444Y70980
X24714Y73520
X23444Y76060
X24714Y78600
X23444Y81140
X24714Y83680
X23444Y86220
X23444Y91300
X24714Y93840
X23444Y96380
X24714Y98920
X23444Y101460
X27254Y22720
X25984Y25260
X27254Y27800
X25984Y30340
X27254Y32880
X25984Y35420
X27254Y63360
X25984Y65900
X27254Y68440
X25984Y70980
X27254Y73520
X25984Y76060
X27254Y78600
X25984Y81140
X27254Y83680
X25984Y86220
X25984Y91300
X27254Y93840
X25984Y96380
X27254Y98920
X25984Y101460
X27254Y104000
X25984Y106540
X29794Y22720
X28524Y25260
X29794Y27800
X28524Y30340
X29794Y32880
X28524Y35420
X29794Y63360
X28524Y65900
X29794Y68440
X28524Y70980
X29794Y73520
X28524Y76060
X29794Y78600
X28524Y81140
X29794Y83680
X28524Y86220
X28524Y91300
X29794Y93840
X28524Y96380
X29794Y98920
X28524Y101460
X29794Y104000
X28524Y106540
X32334Y22720
X31064Y25260
X32334Y27800
X31064Y30340
X32334Y32880
X31064Y35420
X32334Y63360
X31064Y65900
X32334Y68440
X31064Y70980
X32334Y73520
X31064Y76060
X32334Y78600
X31064Y81140
X32334Y83680
X31064Y86220
X31064Y91300
X32334Y93840
X31064Y96380
X32334Y98920
X31064Y101460
X32334Y104000
X31064Y106540
X34874Y22720
X33604Y25260
X34874Y27800
X33604Y30340
X34874Y32880
X33604Y35420
X34874Y63360
X33604Y65900
X34874Y68440
X33604Y70980
X34874Y73520
X33604Y76060
X34874Y78600
X33604Y81140
X34874Y83680
X33604Y86220
X33604Y91300
X34874Y93840
X33604Y96380
X34874Y98920
X33604Y101460
X34874Y104000
X33604Y106540
X37414Y22720
X36144Y25260
X37414Y27800
X36144Y30340
X37414Y32880
X36144Y35420
X37414Y63360
X36144Y65900
X37414Y68440
X36144Y70980
X37414Y73520
X36144Y76060
X37414Y78600
X36144Y81140
X37414Y83680
X36144Y86220
X36144Y91300
X37414Y93840
X36144Y96380
X37414Y98920
X36144Y101460
X37414Y104000
X38684Y65900
X38684Y70980
X38684Y76060
X38684Y81140
X38684Y86220
X38684Y91300
X38684Y96380
X38684Y101460
X13284Y70980
X10744Y70980
X8204Y70980
X5664Y70980
X55855Y58496
X57455Y58471
X59030Y58471
X62230Y56896
X54077Y58674
X52934Y59639
X52934Y57912
X52959Y56058
X53950Y56845
X51410Y59639
X49886Y59639
X48362Y59639
X46838Y59639
X45314Y59639
X43790Y59639
X42266Y59639
X40742Y59639
X40742Y57861
X40742Y56083
X42266Y57861
X42266Y56083
X43790Y56083
X43790Y57861
X45314Y57861
X46838Y57861
X48362Y57861
X49886Y57861
X51410Y57861
X51410Y56083
X49886Y56083
X48362Y56083
X46838Y56083
X45314Y56083
X51689Y54280
X50165Y54280
X51689Y52756
X50165Y52756
X42494Y27800
X42494Y32880
X42494Y63360
X41224Y65900
X42494Y68440
X41224Y70980
X42494Y73520
X41224Y76060
X42494Y78600
X41224Y81140
X42494Y83680
X41224Y86220
X41224Y91300
X42494Y93840
X41224Y96380
X45060Y22720
X45034Y27800
X43764Y30340
X45034Y32880
X43764Y35420
X45034Y63360
X43764Y65900
X45034Y68440
X43764Y70980
X45034Y73520
X43764Y76060
X45034Y78600
X43764Y81140
X45034Y83680
X43764Y86220
X43764Y91300
X45034Y93840
X43764Y96380
X47574Y22720
X46304Y25260
X47574Y27800
X46304Y30340
X47574Y32880
X46304Y35420
X47574Y63360
X46304Y65900
X47574Y68440
X46304Y70980
X47574Y73520
X46304Y76060
X47574Y78600
X46304Y81140
X47574Y83680
X46304Y86220
X46304Y91300
X47574Y93840
X46304Y96380
X50114Y22720
X48844Y25260
X50114Y27800
X48844Y30340
X50114Y32880
X48844Y35420
X50114Y63360
X48844Y65900
X50114Y68440
X48844Y70980
X50114Y73520
X48844Y76060
X50114Y78600
X48844Y81140
X50114Y83680
X48844Y86220
X48844Y91300
X50114Y93840
X48844Y96380
X52654Y22720
X51384Y25260
X52654Y27800
X51384Y30340
X51384Y35420
X52654Y63360
X51384Y65900
X52654Y68440
X51384Y70980
X52654Y73520
X51384Y76060
X52654Y78600
X51384Y81140
X52654Y83680
X51384Y86220
X51384Y91300
X52654Y93840
X51384Y96380
X55194Y22720
X53924Y25260
X55194Y27800
X53924Y30340
X55194Y32880
X53924Y35420
X55194Y63360
X53924Y65900
X55194Y68440
X53924Y70980
X55194Y73520
X53924Y76060
X55194Y78600
X53924Y81140
X55194Y83680
X53924Y86220
X53924Y91300
X55194Y93840
X53924Y96380
X57734Y22720
X56464Y25260
X57734Y27800
X56464Y30340
X57734Y32880
X56464Y35420
X57734Y68440
X56464Y70980
X57734Y73520
X56464Y76060
X57734Y78600
X56464Y81140
X57734Y83680
X56464Y86220
X56464Y91300
X57734Y93840
X56464Y96380
X60274Y22720
X59004Y25260
X60274Y27800
X59004Y30340
X60274Y32880
X59004Y35420
X60274Y68440
X59004Y70980
X60274Y73520
X59004Y76060
X60274Y78600
X59004Y81140
X60274Y83680
X59004Y86220
X59004Y91300
X60274Y93840
X59004Y96380
X60274Y98920
X59004Y101460
X59004Y106540
X62814Y22720
X61544Y25260
X62814Y27800
X61544Y30340
X62814Y32880
X61544Y35420
X62814Y63360
X62814Y68440
X61544Y70980
X62814Y73520
X61544Y76060
X62814Y78600
X61544Y81140
X62814Y83680
X61544Y86220
X61544Y91300
X62814Y93840
X61544Y96380
X62814Y98920
X61544Y101460
X62814Y104000
X65354Y22720
X64084Y25260
X65354Y27800
X64084Y30340
X65354Y32880
X64084Y35420
X65354Y63360
X64084Y65900
X65354Y68440
X64084Y70980
X65354Y73520
X64084Y76060
X65354Y78600
X64084Y81140
X65354Y83680
X64084Y86220
X64084Y91300
X65354Y93840
X64084Y96380
X65354Y98920
X64084Y101460
X65354Y104000
X64084Y106540
X67894Y22720
X66624Y25260
X67894Y27800
X66624Y30340
X67894Y32880
X66624Y35420
X66624Y65900
X67894Y68440
X66624Y70980
X67894Y73520
X66624Y76060
X67894Y78600
X66624Y81140
X67894Y83680
X66624Y86220
X66624Y91300
X67894Y93840
X66624Y96380
X67894Y98920
X66624Y101460
X67894Y104000
X66624Y106540
X70434Y22720
X69164Y25260
X70434Y27800
X69164Y30340
X70434Y32880
X69164Y35420
X69164Y65900
X70434Y68440
X69164Y70980
X70434Y73520
X69164Y76060
X70434Y78600
X69164Y81140
X70434Y83680
X69164Y86220
X69164Y91300
X70434Y93840
X69164Y96380
X70434Y98920
X69164Y101460
X70434Y104000
X69164Y106540
X72974Y22720
X71704Y25260
X72974Y27800
X71704Y30340
X72974Y32880
X71704Y35420
X71704Y65900
X72974Y68440
X71704Y70980
X72974Y73520
X71704Y76060
X72974Y78600
X71704Y81140
X72974Y83680
X71704Y86220
X71704Y91300
X72974Y93840
X71704Y96380
X72974Y98920
X71704Y101460
X72974Y104000
X71704Y106540
X74244Y25260
X74244Y30340
X74244Y35420
X74244Y65900
X74244Y70980
X74244Y76060
X74244Y81140
X74244Y86220
X74244Y91300
X74244Y96380
X74244Y101460
X74244Y106540
X58420Y4826
X56642Y4826
X95580Y58318
X94183Y58344
X92837Y58395
X91364Y58395
X92126Y59538
X90449Y59385
X90449Y57302
X98908Y57506
X100660Y57556
X102489Y57556
X104292Y57556
X106045Y57633
X107798Y57607
X99771Y56236
X101549Y56236
X103327Y56185
X105131Y56159
X106883Y56159
X97206Y58217
X100660Y54661
X102311Y54661
X104089Y54661
X106121Y54610
X107899Y54661
X109931Y54661
X111709Y54661
X108687Y56159
X110592Y56261
X109474Y57556
X80594Y22720
X79324Y25260
X80594Y27800
X79324Y30340
X80594Y32880
X79324Y35420
X79324Y65900
X80594Y68440
X79324Y70980
X83134Y22720
X81864Y25260
X83134Y27800
X81864Y30340
X83134Y32880
X81864Y35420
X81864Y65900
X83134Y68440
X81864Y70980
X85674Y22720
X84404Y25260
X85674Y27800
X84404Y30340
X85674Y32880
X84404Y35420
X84404Y65900
X85674Y68440
X84404Y70980
X88214Y22720
X86944Y25260
X88214Y27800
X86944Y30340
X88214Y32880
X86944Y35420
X86944Y65900
X88214Y68440
X86944Y70980
X90754Y22720
X89484Y25260
X90754Y27800
X89484Y30340
X90754Y32880
X89484Y35420
X90754Y63360
X89484Y65900
X90754Y68440
X89484Y70980
X90754Y73520
X93294Y22720
X92024Y25260
X93294Y27800
X92024Y30340
X93294Y32880
X92024Y35420
X92024Y65900
X93294Y68440
X92024Y70980
X93294Y73520
X93294Y78600
X93294Y83680
X92024Y91300
X93294Y93840
X92024Y96380
X93294Y98920
X95834Y22720
X94564Y25260
X95834Y27800
X94564Y30340
X95834Y32880
X94564Y35420
X95834Y68440
X94564Y70980
X95834Y73520
X94564Y76060
X95834Y78600
X94564Y81140
X95834Y83680
X94564Y86220
X94564Y91300
X95834Y93840
X94564Y96380
X95834Y98920
X94564Y101460
X95834Y104000
X94564Y106540
X98374Y22720
X97104Y25260
X98374Y27800
X97104Y30340
X98374Y32880
X97104Y35420
X98374Y63360
X98374Y68440
X97104Y70980
X98374Y73520
X97104Y76060
X98374Y78600
X97104Y81140
X98374Y83680
X97104Y86220
X97104Y91300
X98374Y93840
X97104Y96380
X98374Y98920
X97104Y101460
X100914Y22720
X99644Y25260
X100914Y27800
X99644Y30340
X100914Y32880
X99644Y35420
X100914Y63360
X99644Y65900
X100914Y68440
X99644Y70980
X100914Y73520
X99644Y76060
X100914Y78600
X99644Y81140
X100914Y83680
X99644Y86220
X99644Y91300
X100914Y93840
X99644Y96380
X100914Y98920
X99644Y101460
X100914Y104000
X99644Y106540
X103454Y22720
X102184Y25260
X103454Y27800
X102184Y30340
X103454Y32880
X102184Y35420
X103454Y63360
X102184Y65900
X103454Y68440
X102184Y70980
X103454Y73520
X102184Y76060
X103454Y78600
X102184Y81140
X103454Y83680
X102184Y86220
X102184Y91300
X103454Y93840
X102184Y96380
X103454Y98920
X102184Y101460
X103454Y104000
X102184Y106540
X105994Y22720
X104724Y25260
X105994Y27800
X104724Y30340
X105994Y32880
X104724Y35420
X105994Y63360
X104724Y65900
X105994Y68440
X104724Y70980
X105994Y73520
X104724Y76060
X105994Y78600
X104724Y81140
X105994Y83680
X104724Y86220
X104724Y91300
X105994Y93840
X104724Y96380
X105994Y98920
X104724Y101460
X105994Y104000
X104724Y106540
X108534Y22720
X107264Y25260
X108534Y27800
X107264Y30340
X108534Y32880
X107264Y35420
X108534Y63360
X107264Y65900
X108534Y68440
X107264Y70980
X108534Y73520
X107264Y76060
X108534Y78600
X107264Y81140
X108534Y83680
X107264Y86220
X107264Y91300
X108534Y93840
X107264Y96380
X108534Y98920
X107264Y101460
X108534Y104000
X107264Y106540
X111074Y22720
X109804Y25260
X111074Y27800
X109804Y30340
X111074Y32880
X109804Y35420
X111074Y63360
X109804Y65900
X111074Y68440
X109804Y70980
X111074Y73520
X109804Y76060
X111074Y78600
X109804Y81140
X111074Y83680
X109804Y86220
X109804Y91300
X111074Y93840
X109804Y96380
X111074Y98920
X109804Y101460
X111074Y104000
X109804Y106540
X112344Y65900
X112344Y70980
X112344Y76060
X112344Y81140
X112344Y86220
X112344Y91300
X112344Y96380
X112344Y101460
X129515Y58496
X131115Y58471
X132690Y58471
X135890Y56896
X127737Y58674
X126594Y59639
X126594Y57912
X126619Y56058
X127610Y56845
X125070Y59639
X123546Y59639
X122022Y59639
X120498Y59639
X118974Y59639
X117450Y59639
X115926Y59639
X114402Y59639
X114402Y57861
X114402Y56083
X115926Y57861
X115926Y56083
X117450Y56083
X117450Y57861
X118974Y57861
X120498Y57861
X122022Y57861
X123546Y57861
X125070Y57861
X125070Y56083
X123546Y56083
X122022Y56083
X120498Y56083
X118974Y56083
X125349Y54280
X123825Y54280
X125349Y52756
X123825Y52756
X116154Y22720
X116154Y27800
X116154Y32880
X116154Y63360
X114884Y65900
X116154Y68440
X114884Y70980
X116154Y73520
X114884Y76060
X116154Y78600
X114884Y81140
X116154Y83680
X114884Y86220
X114884Y91300
X116154Y93840
X114884Y96380
X118694Y22720
X117424Y25260
X118694Y27800
X117424Y30340
X118694Y32880
X117424Y35420
X118694Y63360
X117424Y65900
X118694Y68440
X117424Y70980
X118694Y73520
X117424Y76060
X118694Y78600
X117424Y81140
X118694Y83680
X117424Y86220
X117424Y91300
X118694Y93840
X117424Y96380
X121234Y22720
X119964Y25260
X121234Y27800
X119964Y30340
X121234Y32880
X119964Y35420
X121234Y63360
X119964Y65900
X121234Y68440
X119964Y70980
X121234Y73520
X119964Y76060
X121234Y78600
X119964Y81140
X121234Y83680
X119964Y86220
X119964Y91300
X121234Y93840
X119964Y96380
X123774Y22720
X122504Y25260
X123774Y27800
X122504Y30340
X123774Y32880
X122504Y35420
X123774Y63360
X122504Y65900
X123774Y68440
X122504Y70980
X123774Y73520
X122504Y76060
X123774Y78600
X122504Y81140
X123774Y83680
X122504Y86220
X122504Y91300
X123774Y93840
X122504Y96380
X126314Y27800
X125044Y30340
X126314Y32880
X125044Y35420
X126314Y63360
X125044Y65900
X126314Y68440
X125044Y70980
X126314Y73520
X125044Y76060
X126314Y78600
X125044Y81140
X126314Y83680
X125044Y86220
X125044Y91300
X126314Y93840
X125044Y96380
X128854Y22720
X128854Y27800
X127584Y30340
X128854Y32880
X127584Y35420
X128854Y63360
X127584Y65900
X128854Y68440
X127584Y70980
X128854Y73520
X127584Y76060
X128854Y78600
X127584Y81140
X128854Y83680
X127584Y86220
X127584Y91300
X128854Y93840
X127584Y96380
X131394Y22720
X130124Y25260
X131394Y27800
X130124Y30340
X131394Y32880
X130124Y35420
X131394Y68440
X130124Y70980
X131394Y73520
X130124Y76060
X131394Y78600
X130124Y81140
X131394Y83680
X130124Y86220
X130124Y91300
X131394Y93840
X130124Y96380
X133934Y22720
X132664Y25260
X133934Y27800
X132664Y30340
X133934Y32880
X132664Y35420
X133934Y68440
X132664Y70980
X133934Y73520
X132664Y76060
X133934Y78600
X132664Y81140
X133934Y83680
X132664Y86220
X132664Y91300
X133934Y93840
X132664Y96380
X133934Y98920
X132664Y101460
X132664Y106540
X136474Y22720
X135204Y25260
X136474Y27800
X135204Y30340
X136474Y32880
X135204Y35420
X136474Y63360
X135204Y65900
X136474Y68440
X135204Y70980
X136474Y73520
X135204Y76060
X136474Y78600
X135204Y81140
X136474Y83680
X135204Y86220
X135204Y91300
X136474Y93840
X135204Y96380
X136474Y98920
X135204Y101460
X136474Y104000
X139014Y22720
X137744Y25260
X139014Y27800
X137744Y30340
X139014Y32880
X137744Y35420
X139014Y63360
X137744Y65900
X139014Y68440
X137744Y70980
X139014Y73520
X137744Y76060
X139014Y78600
X137744Y81140
X139014Y83680
X137744Y86220
X137744Y91300
X137744Y96380
X139014Y98920
X137744Y101460
X139014Y104000
X137744Y106540
X141554Y22720
X140284Y25260
X141554Y27800
X140284Y30340
X141554Y32880
X140284Y35420
X140284Y65900
X141554Y68440
X140284Y70980
X141554Y73520
X140284Y76060
X141554Y78600
X140284Y81140
X141554Y83680
X140284Y86220
X141554Y98920
X140284Y101460
X141554Y104000
X140284Y106540
X144094Y22720
X142824Y25260
X144094Y27800
X142824Y30340
X144094Y32880
X142824Y35420
X142824Y65900
X144094Y68440
X142824Y70980
X144094Y73520
X142824Y76060
X144094Y78600
X142824Y81140
X144094Y83680
X142824Y86220
X144094Y98920
X142824Y101460
X144094Y104000
X142824Y106540
X146634Y22720
X145364Y25260
X146634Y27800
X145364Y30340
X146634Y32880
X145364Y35420
X145364Y65900
X146634Y68440
X145364Y70980
X146634Y73520
X145364Y76060
X146634Y78600
X145364Y81140
X146634Y83680
X145364Y86220
X145364Y91300
X146634Y93840
X145364Y96380
X146634Y98920
X145364Y101460
X146634Y104000
X145364Y106540
X147904Y25260
X147904Y30340
X147904Y35420
X147904Y65900
X147904Y70980
X147904Y76060
X147904Y81140
X147904Y86220
X147904Y91300
X147904Y96380
X147904Y101460
X147904Y106540
X169240Y58318
X167843Y58344
X166497Y58395
X165024Y58395
X165786Y59538
X164109Y59385
X164109Y57302
X172568Y57506
X174320Y57556
X176149Y57556
X177952Y57556
X179705Y57633
X181458Y57607
X173431Y56236
X175209Y56236
X176987Y56185
X178791Y56159
X180543Y56159
X170866Y58217
X174320Y54661
X175971Y54661
X177749Y54661
X179781Y54610
X181559Y54661
X183591Y54661
X185369Y54661
X182347Y56159
X184252Y56261
X183134Y57556
X154254Y22720
X152984Y25260
X154254Y27800
X152984Y30340
X154254Y32880
X152984Y35420
X152984Y65900
X154254Y68440
X152984Y70980
X156794Y22720
X155524Y25260
X156794Y27800
X155524Y30340
X156794Y32880
X155524Y35420
X155524Y65900
X156794Y68440
X155524Y70980
X159334Y22720
X158064Y25260
X159334Y27800
X158064Y30340
X159334Y32880
X158064Y35420
X158064Y65900
X159334Y68440
X158064Y70980
X161874Y22720
X160604Y25260
X161874Y27800
X160604Y30340
X161874Y32880
X160604Y35420
X160604Y65900
X161874Y68440
X160604Y70980
X164414Y22720
X163144Y25260
X164414Y27800
X163144Y30340
X164414Y32880
X163144Y35420
X164414Y63360
X163144Y65900
X164414Y68440
X163144Y70980
X164414Y73520
X166954Y22720
X165684Y25260
X165684Y30340
X166954Y32880
X165684Y35420
X165684Y65900
X166954Y68440
X165684Y70980
X166954Y73520
X166954Y78600
X166954Y83680
X165684Y91300
X165684Y96380
X166954Y98920
X169494Y22720
X169494Y32880
X168224Y35420
X169494Y68440
X168224Y70980
X169494Y73520
X168224Y76060
X169494Y78600
X168224Y81140
X169494Y83680
X168224Y86220
X168224Y96380
X169494Y98920
X168224Y101460
X169494Y104000
X168224Y106540
X172034Y22720
X172034Y32880
X170764Y35420
X172034Y63360
X172034Y68440
X170764Y70980
X172034Y73520
X170764Y76060
X172034Y78600
X170764Y81140
X172034Y83680
X170764Y86220
X172034Y98920
X170764Y101460
X173304Y25260
X174574Y27800
X173304Y30340
X174574Y32880
X173304Y35420
X174574Y63360
X173304Y65900
X174574Y68440
X173304Y70980
X174574Y73520
X173304Y76060
X174574Y78600
X173304Y81140
X174574Y83680
X173304Y86220
X174574Y93840
X173304Y96380
X174574Y98920
X173304Y101460
X174574Y104000
X173304Y106540
X175844Y25260
X177114Y27800
X175844Y30340
X177114Y32880
X175844Y35420
X177114Y63360
X175844Y65900
X177114Y68440
X175844Y70980
X177114Y73520
X175844Y76060
X177114Y78600
X175844Y81140
X177114Y83680
X175844Y86220
X175844Y91300
X177114Y93840
X175844Y96380
X177114Y98920
X175844Y101460
X177114Y104000
X175844Y106540
X178384Y25260
X179654Y27800
X178384Y30340
X179654Y32880
X178384Y35420
X179654Y63360
X178384Y65900
X179654Y68440
X178384Y70980
X179654Y73520
X178384Y76060
X179654Y78600
X178384Y81140
X179654Y83680
X178384Y86220
X178384Y91300
X179654Y93840
X178384Y96380
X179654Y98920
X178384Y101460
X179654Y104000
X178384Y106540
X180924Y25260
X182194Y27800
X180924Y30340
X182194Y32880
X180924Y35420
X182194Y63360
X180924Y65900
X182194Y68440
X180924Y70980
X182194Y73520
X180924Y76060
X182194Y78600
X180924Y81140
X182194Y83680
X180924Y86220
X180924Y91300
X182194Y93840
X180924Y96380
X182194Y98920
X180924Y101460
X182194Y104000
X180924Y106540
X183464Y25260
X184734Y27800
X183464Y30340
X184734Y32880
X183464Y35420
X184734Y63360
X183464Y65900
X184734Y68440
X183464Y70980
X184734Y73520
X183464Y76060
X184734Y78600
X183464Y81140
X184734Y83680
X183464Y86220
X183464Y91300
X184734Y93840
X183464Y96380
X184734Y98920
X183464Y101460
X184734Y104000
X183464Y106540
X186004Y65900
X186004Y70980
X186004Y76060
X186004Y81140
X186004Y86220
X186004Y91300
X186004Y96380
X186004Y101460
X203175Y58496
X204775Y58471
X206350Y58471
X209550Y56896
X201397Y58674
X200254Y59639
X200254Y57912
X200279Y56058
X201270Y56845
X198730Y59639
X197206Y59639
X195682Y59639
X194158Y59639
X192634Y59639
X191110Y59639
X189586Y59639
X188062Y59639
X188062Y57861
X188062Y56083
X189586Y57861
X189586Y56083
X191110Y56083
X191110Y57861
X192634Y57861
X194158Y57861
X195682Y57861
X197206Y57861
X198730Y57861
X198730Y56083
X197206Y56083
X195682Y56083
X194158Y56083
X192634Y56083
X199009Y54280
X197485Y54280
X199009Y52756
X197485Y52756
X189814Y27800
X189814Y32880
X189814Y63360
X188544Y65900
X189814Y68440
X188544Y70980
X189814Y73520
X188544Y76060
X189814Y78600
X188544Y81140
X189814Y83680
X188544Y86220
X188544Y91300
X189814Y93840
X188544Y96380
X191084Y25260
X192354Y27800
X191084Y30340
X192354Y32880
X191084Y35420
X192354Y63360
X191084Y65900
X192354Y68440
X191084Y70980
X192354Y73520
X191084Y76060
X192354Y78600
X191084Y81140
X192354Y83680
X191084Y86220
X191084Y91300
X192354Y93840
X191084Y96380
X193624Y25260
X194894Y27800
X193624Y30340
X194894Y32880
X193624Y35420
X194894Y63360
X193624Y65900
X194894Y68440
X193624Y70980
X194894Y73520
X193624Y76060
X194894Y78600
X193624Y81140
X194894Y83680
X193624Y86220
X193624Y91300
X194894Y93840
X193624Y96380
X196164Y25260
X197434Y27800
X196164Y30340
X197434Y32880
X196164Y35420
X197434Y63360
X196164Y65900
X197434Y68440
X196164Y70980
X197434Y73520
X196164Y76060
X197434Y78600
X196164Y81140
X197434Y83680
X196164Y86220
X196164Y91300
X197434Y93840
X196164Y96380
X198704Y25260
X199974Y27800
X198704Y30340
X199974Y32880
X198704Y35420
X199974Y63360
X198704Y65900
X199974Y68440
X198704Y70980
X199974Y73520
X198704Y76060
X199974Y78600
X198704Y81140
X199974Y83680
X198704Y86220
X198704Y91300
X199974Y93840
X198704Y96380
X201244Y25260
X202514Y27800
X201244Y30340
X202514Y32880
X201244Y35420
X202514Y63360
X201244Y65900
X202514Y68440
X201244Y70980
X202514Y73520
X201244Y76060
X202514Y78600
X201244Y81140
X202514Y83680
X201244Y86220
X201244Y91300
X202514Y93840
X201244Y96380
X203784Y25260
X205054Y27800
X203784Y30340
X205054Y32880
X203784Y35420
X205054Y68440
X203784Y70980
X205054Y73520
X203784Y76060
X205054Y78600
X203784Y81140
X205054Y83680
X203784Y86220
X203784Y91300
X205054Y93840
X203784Y96380
X206324Y25260
X207594Y27800
X206324Y30340
X207594Y32880
X206324Y35420
X207594Y68440
X206324Y70980
X207594Y73520
X206324Y76060
X207594Y78600
X206324Y81140
X207594Y83680
X206324Y86220
X206324Y91300
X207594Y93840
X206324Y96380
X207594Y98920
X206324Y101460
X206324Y106540
X208864Y25260
X210134Y27800
X208864Y30340
X210134Y32880
X208864Y35420
X210134Y63360
X208864Y65900
X210134Y68440
X208864Y70980
X210134Y73520
X208864Y76060
X210134Y78600
X208864Y81140
X210134Y83680
X208864Y86220
X208864Y91300
X210134Y93840
X208864Y96380
X210134Y98920
X208864Y101460
X210134Y104000
X211404Y25260
X212674Y27800
X211404Y30340
X212674Y32880
X211404Y35420
X212674Y63360
X211404Y65900
X212674Y68440
X211404Y70980
X212674Y73520
X211404Y76060
X212674Y78600
X211404Y81140
X212674Y83680
X211404Y86220
X211404Y91300
X212674Y93840
X211404Y96380
X212674Y98920
X211404Y101460
X212674Y104000
X211404Y106540
X213944Y25260
X215214Y27800
X213944Y30340
X215214Y32880
X213944Y35420
X213944Y65900
X215214Y68440
X213944Y70980
X215214Y73520
X213944Y76060
X215214Y78600
X213944Y81140
X215214Y83680
X213944Y86220
X213944Y91300
X215214Y93840
X213944Y96380
X215214Y98920
X213944Y101460
X215214Y104000
X213944Y106540
X216484Y25260
X217754Y27800
X216484Y30340
X217754Y32880
X216484Y35420
X216484Y65900
X217754Y68440
X216484Y70980
X217754Y73520
X216484Y76060
X217754Y78600
X216484Y81140
X217754Y83680
X216484Y86220
X216484Y91300
X217754Y93840
X216484Y96380
X217754Y98920
X216484Y101460
X217754Y104000
X216484Y106540
X219024Y25260
X220294Y27800
X219024Y30340
X220294Y32880
X219024Y35420
X219024Y65900
X220294Y68440
X219024Y70980
X220294Y73520
X219024Y76060
X220294Y78600
X219024Y81140
X220294Y83680
X219024Y86220
X219024Y91300
X220294Y93840
X219024Y96380
X220294Y98920
X219024Y101460
X220294Y104000
X219024Y106540
X221564Y25260
X221564Y30340
X221564Y35420
X221564Y65900
X221564Y70980
X221564Y76060
X221564Y81140
X221564Y86220
X221564Y91300
X221564Y96380
X221564Y101460
X221564Y106540
X242900Y58318
X241503Y58344
X240157Y58395
X238684Y58395
X239446Y59538
X237769Y59385
X237769Y57302
X246228Y57506
X247980Y57556
X249809Y57556
X251612Y57556
X253365Y57633
X255118Y57607
X247091Y56236
X248869Y56236
X250647Y56185
X252451Y56159
X254203Y56159
X244526Y58217
X247980Y54661
X249631Y54661
X251409Y54661
X253441Y54610
X255219Y54661
X257251Y54661
X259029Y54661
X256007Y56159
X257912Y56261
X256794Y57556
X226644Y25260
X227914Y27800
X226644Y30340
X227914Y32880
X226644Y35420
X226644Y65900
X227914Y68440
X226644Y70980
X229184Y25260
X230454Y27800
X229184Y30340
X230454Y32880
X229184Y35420
X229184Y65900
X230454Y68440
X229184Y70980
X231724Y25260
X232994Y27800
X231724Y30340
X232994Y32880
X231724Y35420
X231724Y65900
X231724Y70980
X234264Y25260
X235534Y27800
X234264Y30340
X235534Y32880
X234264Y35420
X234264Y65900
X235534Y68440
X234264Y70980
X236804Y25260
X238074Y27800
X236804Y30340
X238074Y32880
X236804Y35420
X238074Y63360
X236804Y65900
X238074Y68440
X236804Y70980
X238074Y73520
X239344Y25260
X240614Y27800
X239344Y30340
X240614Y32880
X239344Y35420
X239344Y65900
X240614Y68440
X239344Y70980
X240614Y73520
X240614Y78600
X240614Y83680
X239344Y91300
X240614Y93840
X239344Y96380
X240614Y98920
X241884Y25260
X243154Y27800
X241884Y30340
X243154Y32880
X241884Y35420
X243154Y68440
X241884Y70980
X243154Y73520
X241884Y76060
X243154Y78600
X241884Y81140
X243154Y83680
X241884Y86220
X241884Y91300
X243154Y93840
X241884Y96380
X243154Y98920
X241884Y101460
X243154Y104000
X241884Y106540
X244424Y25260
X245694Y27800
X244424Y30340
X245694Y32880
X244424Y35420
X245694Y63360
X245694Y68440
X244424Y70980
X245694Y73520
X244424Y76060
X245694Y78600
X244424Y81140
X245694Y83680
X244424Y86220
X244424Y91300
X245694Y93840
X244424Y96380
X245694Y98920
X244424Y101460
X246964Y25260
X248234Y27800
X246964Y30340
X248234Y32880
X246964Y35420
X248234Y63360
X246964Y65900
X248234Y68440
X246964Y70980
X248234Y73520
X246964Y76060
X248234Y78600
X246964Y81140
X248234Y83680
X246964Y86220
X246964Y91300
X248234Y93840
X246964Y96380
X248234Y98920
X246964Y101460
X248234Y104000
X246964Y106540
X249504Y25260
X250774Y27800
X249504Y30340
X250774Y32880
X249504Y35420
X250774Y63360
X249504Y65900
X250774Y68440
X249504Y70980
X250774Y73520
X249504Y76060
X250774Y78600
X249504Y81140
X250774Y83680
X249504Y86220
X249504Y91300
X250774Y93840
X249504Y96380
X250774Y98920
X249504Y101460
X250774Y104000
X249504Y106540
X252044Y25260
X253314Y27800
X252044Y30340
X253314Y32880
X252044Y35420
X253314Y63360
X252044Y65900
X253314Y68440
X252044Y70980
X253314Y73520
X252044Y76060
X253314Y78600
X252044Y81140
X253314Y83680
X252044Y86220
X252044Y91300
X253314Y93840
X252044Y96380
X253314Y98920
X252044Y101460
X253314Y104000
X252044Y106540
X254584Y25260
X255854Y27800
X254584Y30340
X255854Y32880
X254584Y35420
X255854Y63360
X254584Y65900
X255854Y68440
X254584Y70980
X255854Y73520
X254584Y76060
X255854Y78600
X254584Y81140
X255854Y83680
X254584Y86220
X254584Y91300
X255854Y93840
X254584Y96380
X255854Y98920
X254584Y101460
X255854Y104000
X254584Y106540
X257124Y25260
X258394Y27800
X257124Y30340
X258394Y32880
X257124Y35420
X258394Y63360
X257124Y65900
X258394Y68440
X257124Y70980
X258394Y73520
X257124Y76060
X258394Y78600
X257124Y81140
X258394Y83680
X257124Y86220
X257124Y91300
X258394Y93840
X257124Y96380
X258394Y98920
X257124Y101460
X258394Y104000
X257124Y106540
X259664Y65900
X259664Y70980
X259664Y76060
X259664Y81140
X259664Y86220
X259664Y91300
X259664Y96380
X259664Y101460
X276835Y58496
X278435Y58471
X280010Y58471
X283210Y56896
X275057Y58674
X273914Y59639
X273914Y57912
X273939Y56058
X274930Y56845
X272390Y59639
X270866Y59639
X269342Y59639
X267818Y59639
X266294Y59639
X264770Y59639
X263246Y59639
X261722Y59639
X261722Y57861
X261722Y56083
X263246Y57861
X263246Y56083
X264770Y56083
X264770Y57861
X266294Y57861
X267818Y57861
X269342Y57861
X270866Y57861
X272390Y57861
X272390Y56083
X270866Y56083
X269342Y56083
X267818Y56083
X266294Y56083
X272669Y54280
X271145Y54280
X272669Y52756
X271145Y52756
X263474Y27800
X263474Y32880
X263474Y63360
X262204Y65900
X263474Y68440
X262204Y70980
X263474Y73520
X262204Y76060
X263474Y78600
X262204Y81140
X263474Y83680
X262204Y86220
X262204Y91300
X263474Y93840
X262204Y96380
X264744Y25260
X266014Y27800
X264744Y30340
X266014Y32880
X264744Y35420
X266014Y63360
X264744Y65900
X266014Y68440
X264744Y70980
X266014Y73520
X264744Y76060
X266014Y78600
X264744Y81140
X266014Y83680
X264744Y86220
X264744Y91300
X266014Y93840
X264744Y96380
X267284Y25260
X268554Y27800
X267284Y30340
X268554Y32880
X267284Y35420
X268554Y63360
X267284Y65900
X268554Y68440
X267284Y70980
X268554Y73520
X267284Y76060
X268554Y78600
X267284Y81140
X268554Y83680
X267284Y86220
X267284Y91300
X268554Y93840
X267284Y96380
X269824Y25260
X271094Y27800
X269824Y30340
X271094Y32880
X269824Y35420
X271094Y63360
X269824Y65900
X271094Y68440
X269824Y70980
X271094Y73520
X269824Y76060
X271094Y78600
X269824Y81140
X271094Y83680
X269824Y86220
X269824Y91300
X271094Y93840
X269824Y96380
X272364Y25260
X273634Y27800
X272364Y30340
X273634Y32880
X272364Y35420
X273634Y63360
X272364Y65900
X273634Y68440
X272364Y70980
X273634Y73520
X272364Y76060
X273634Y78600
X272364Y81140
X273634Y83680
X272364Y86220
X272364Y91300
X273634Y93840
X272364Y96380
X274904Y25260
X276174Y27800
X274904Y30340
X276174Y32880
X274904Y35420
X276174Y63360
X274904Y65900
X276174Y68440
X274904Y70980
X276174Y73520
X274904Y76060
X276174Y78600
X274904Y81140
X276174Y83680
X274904Y86220
X274904Y91300
X276174Y93840
X274904Y96380
X277444Y25260
X278714Y27800
X277444Y30340
X278714Y32880
X277444Y35420
X278714Y68440
X277444Y70980
X278714Y73520
X277444Y76060
X278714Y78600
X232994Y68440
X278714Y83680
X277444Y86220
X277444Y91300
X278714Y93840
X277444Y96380
X279984Y25260
X281254Y27800
X279984Y30340
X281254Y32880
X279984Y35420
X281254Y68440
X279984Y70980
X281254Y73520
X279984Y76060
X281254Y78600
X279984Y81140
X281254Y83680
X279984Y86220
X279984Y91300
X281254Y93840
X279984Y96380
X281254Y98920
X279984Y101460
X279984Y106540
X282524Y25260
X282524Y30340
X283794Y32880
X282524Y35420
X283794Y63360
X282524Y65900
X283794Y68440
X282524Y70980
X283794Y73520
X282524Y76060
X283794Y78600
X282524Y81140
X283794Y83680
X282524Y86220
X282524Y96380
X283794Y98920
X282524Y101460
X283794Y104000
X286334Y32880
X285064Y35420
X286334Y63360
X285064Y65900
X286334Y68440
X285064Y70980
X286334Y73520
X285064Y76060
X286334Y78600
X285064Y81140
X286334Y83680
X285064Y86220
X286334Y98920
X285064Y101460
X286334Y104000
X285064Y106540
X288874Y32880
X287604Y35420
X287604Y65900
X288874Y68440
X287604Y70980
X288874Y73520
X287604Y76060
X288874Y78600
X287604Y81140
X288874Y83680
X287604Y86220
X287604Y96380
X288874Y98920
X287604Y101460
X288874Y104000
X287604Y106540
X290144Y25260
X291414Y27800
X290144Y30340
X291414Y32880
X290144Y35420
X290144Y65900
X291414Y68440
X290144Y70980
X291414Y73520
X290144Y76060
X291414Y78600
X290144Y81140
X291414Y83680
X290144Y86220
X290144Y91300
X291414Y93840
X290144Y96380
X291414Y98920
X290144Y101460
X291414Y104000
X290144Y106540
X292684Y30340
X292684Y35420
X292684Y65900
X293954Y68440
X292684Y70980
X293954Y73520
X292684Y76060
X293954Y78600
X292684Y81140
X293954Y83680
X292684Y86220
X292684Y91300
X293954Y93840
X292684Y96380
X293954Y98920
X292684Y101460
X293954Y104000
X292684Y106540
X295224Y65900
X295224Y70980
X295224Y76060
X295224Y81140
X295224Y86220
X295224Y91300
X295224Y96380
X295224Y101460
X295224Y106540
X28651Y54661
X10160Y95250
X5842Y88138
X13970Y88138
X10922Y83922
X4572Y83058
X5613Y90170
X5588Y76352
X13691Y76352
X43307Y52273
X39624Y48514
X169164Y10414
X172974Y13462
X54229Y52045
X54229Y50140
X54229Y48235
X56261Y52045
X56261Y50140
X56261Y48235
X58293Y52045
X58293Y50140
X58293Y48235
X60325Y52045
X60325Y50140
X60325Y48235
X62357Y52045
X62357Y50140
X62357Y48235
X17018Y52222
X17018Y50317
X17018Y48412
X19050Y52222
X19050Y50317
X19050Y48412
X21082Y52222
X21082Y50317
X21082Y48412
X23114Y52222
X23114Y50317
X23114Y48412
X25146Y52222
X25146Y50317
X25146Y48412
X83820Y95250
X79502Y88138
X87630Y88138
X84582Y83922
X78232Y83058
X79273Y90170
X79248Y76352
X87351Y76352
X116967Y52273
X113284Y48514
X203708Y10414
X207518Y13462
X127889Y52045
X127889Y50140
X127889Y48235
X129921Y52045
X129921Y50140
X129921Y48235
X131953Y52045
X131953Y50140
X131953Y48235
X133985Y52045
X133985Y50140
X133985Y48235
X136017Y52045
X136017Y50140
X136017Y48235
X90678Y52222
X90678Y50317
X90678Y48412
X92710Y52222
X92710Y50317
X92710Y48412
X94742Y52222
X94742Y50317
X94742Y48412
X96774Y52222
X96774Y50317
X96774Y48412
X98806Y52222
X98806Y50317
X98806Y48412
X157480Y95250
X153162Y88138
X161290Y88138
X158242Y83922
X151892Y83058
X152933Y90170
X152908Y76352
X161011Y76352
X190627Y52273
X186944Y48514
X238252Y10414
X242062Y13462
X201549Y52045
X201549Y50140
X201549Y48235
X203581Y52045
X203581Y50140
X203581Y48235
X205613Y52045
X205613Y50140
X205613Y48235
X207645Y52045
X207645Y50140
X207645Y48235
X209677Y52045
X209677Y50140
X209677Y48235
X164338Y52222
X164338Y50317
X164338Y48412
X166370Y52222
X166370Y50317
X166370Y48412
X168402Y52222
X168402Y50317
X168402Y48412
X170434Y52222
X170434Y50317
X170434Y48412
X172466Y52222
X172466Y50317
X172466Y48412
X231140Y95250
X226822Y88138
X234950Y88138
X231902Y83922
X225552Y83058
X226593Y90170
X226568Y76352
X234671Y76352
X264287Y52273
X260604Y48514
X272796Y10414
X277444Y81140
T18
X318516Y48006
X319786Y49530
X323723Y54077
X319786Y51054
X318516Y51054
X318516Y49530
X318059Y52807
X318033Y54204
X318008Y55550
X318008Y56947
X323723Y48717
X323850Y50546
X323723Y52248
X319786Y48057
T19
X155956Y83591
X158242Y85344
X225044Y73406
X84305Y73939
X90526Y85166
X90348Y81051
X83312Y82550
X84582Y85344
X113268Y47046
X75946Y73406
X82347Y85369
X82296Y83591
X76726Y84520
X77724Y73406
X16866Y85166
X114097Y46152
X334518Y98374
X229667Y85369
X231902Y85344
X230632Y82550
X237668Y81051
X237846Y85166
X264668Y48514
X271526Y8382
X223266Y73406
X263398Y49276
X156972Y82550
X164008Y81051
X164186Y85166
X157965Y73939
X191008Y48514
X156007Y85369
X149606Y73406
X189738Y49276
X151384Y73406
X274066Y18796
X248412Y17780
X239522Y18796
X213868Y17780
X204978Y18796
X282956Y17780
X170434Y18796
X43688Y48514
X10645Y73939
X150386Y84520
X16688Y81051
X9652Y82550
X10922Y85344
X42418Y49276
X2286Y73406
X233883Y89154
X160223Y89154
X86563Y89154
X12903Y89154
X8687Y85369
X8636Y83591
X3066Y84520
X4064Y73406
X319024Y40640
X231625Y73939
X230073Y90272
X156413Y90272
X82753Y90272
X9093Y90272
X179324Y17780
X224046Y84520
X229616Y83591
T20
X304829Y16793
X328120Y20066
X315976Y18542
X315976Y16002
X310312Y40640
X326136Y30480
X311353Y41732
X329159Y22911
X328803Y17907
X330708Y24892
X330454Y15494
X323596Y22504
X315214Y23368
X319024Y23876
X320446Y24646
X327406Y21082
X320015Y17907
X318364Y22606
X316459Y23444
X317751Y18235
X308356Y36068
X324866Y25552
X315468Y13716
X315214Y17526
X316992Y11176
X316738Y17602
X314452Y18542
X311150Y24130
X324612Y12192
X325730Y26467
X317878Y14351
X318719Y13284
X318795Y17018
X317449Y22352
X307787Y17805
M30