G04 EAGLE Gerber RS-274X export*
G75*
%MOMM*%
%FSLAX34Y34*%
%LPD*%
%INSolderpaste Top*%
%IPPOS*%
%AMOC8*
5,1,8,0,0,1.08239X$1,22.5*%
G01*
%ADD10R,1.041400X0.812800*%
%ADD11R,0.812800X1.041400*%
%ADD12R,1.780000X1.070000*%
%ADD13R,1.070000X1.780000*%
%ADD14R,0.800000X1.150000*%
%ADD15R,1.120000X1.240000*%
%ADD16R,1.050000X0.550000*%
%ADD17R,0.850000X0.300000*%
%ADD18R,1.400000X0.450000*%
%ADD19R,0.300000X1.475000*%
%ADD20R,1.475000X0.300000*%
%ADD21R,2.300000X4.000000*%
%ADD22R,0.550000X1.050000*%
%ADD23R,0.500000X0.500000*%
%ADD24R,0.500000X1.100000*%
%ADD25R,0.600000X0.800000*%
%ADD26R,4.410000X3.750000*%
%ADD27R,3.200000X0.600000*%
%ADD28R,6.500000X1.350000*%
%ADD29R,1.300000X1.100000*%


D10*
X3014980Y192621D03*
X3014980Y178219D03*
D11*
X3208439Y487680D03*
X3222841Y487680D03*
X102019Y937260D03*
X116421Y937260D03*
X1735239Y147320D03*
X1749641Y147320D03*
D10*
X190500Y1021499D03*
X190500Y1035901D03*
D12*
X558800Y1029600D03*
X558800Y1002400D03*
D11*
X1735239Y167640D03*
X1749641Y167640D03*
X58839Y868680D03*
X73241Y868680D03*
D10*
X444500Y523659D03*
X444500Y538061D03*
D11*
X140119Y868680D03*
X154521Y868680D03*
X3208439Y505460D03*
X3222841Y505460D03*
D10*
X3215640Y183299D03*
X3215640Y197701D03*
X3233420Y264579D03*
X3233420Y278981D03*
X3126740Y357721D03*
X3126740Y343319D03*
X3201416Y395821D03*
X3201416Y381419D03*
X3178810Y396075D03*
X3178810Y381673D03*
D11*
X3038259Y198120D03*
X3052661Y198120D03*
X3172041Y313944D03*
X3157639Y313944D03*
D10*
X3115564Y213271D03*
X3115564Y227673D03*
D11*
X3337141Y200660D03*
X3322739Y200660D03*
X1072299Y53340D03*
X1086701Y53340D03*
D10*
X3192780Y579539D03*
X3192780Y593941D03*
D13*
X3166480Y528320D03*
X3193680Y528320D03*
D11*
X3215729Y868934D03*
X3201327Y868934D03*
X3165767Y868934D03*
X3180169Y868934D03*
X3162719Y604520D03*
X3177121Y604520D03*
X3208439Y541020D03*
X3222841Y541020D03*
X3208439Y523240D03*
X3222841Y523240D03*
D14*
X3159760Y379958D03*
X3159760Y344958D03*
D15*
X497840Y66280D03*
X497840Y96280D03*
D16*
X3167080Y565760D03*
X3167080Y556260D03*
X3167080Y546760D03*
X3193080Y546760D03*
X3193080Y556260D03*
X3193080Y565760D03*
D17*
X42670Y855860D03*
X42670Y850860D03*
X42670Y845860D03*
X42670Y840860D03*
X74170Y840860D03*
X74170Y845860D03*
X74170Y850860D03*
X74170Y855860D03*
D18*
X1702660Y129130D03*
X1702660Y122630D03*
X1702660Y116130D03*
X1702660Y109630D03*
X1746660Y109630D03*
X1746660Y116130D03*
X1746660Y122630D03*
X1746660Y129130D03*
X71980Y919070D03*
X71980Y912570D03*
X71980Y906070D03*
X71980Y899570D03*
X115980Y899570D03*
X115980Y906070D03*
X115980Y912570D03*
X115980Y919070D03*
X409800Y507590D03*
X409800Y501090D03*
X409800Y494590D03*
X409800Y488090D03*
X453800Y488090D03*
X453800Y494590D03*
X453800Y501090D03*
X453800Y507590D03*
D17*
X123950Y855860D03*
X123950Y850860D03*
X123950Y845860D03*
X123950Y840860D03*
X155450Y840860D03*
X155450Y845860D03*
X155450Y850860D03*
X155450Y855860D03*
D18*
X3168748Y845664D03*
X3168748Y839164D03*
X3168748Y832664D03*
X3168748Y826164D03*
X3212748Y826164D03*
X3212748Y832664D03*
X3212748Y839164D03*
X3212748Y845664D03*
D17*
X3066290Y167760D03*
X3066290Y172760D03*
X3066290Y177760D03*
X3066290Y182760D03*
X3034790Y182760D03*
X3034790Y177760D03*
X3034790Y172760D03*
X3034790Y167760D03*
D19*
X3203988Y287272D03*
X3198988Y287272D03*
X3193988Y287272D03*
X3188988Y287272D03*
X3183988Y287272D03*
X3178988Y287272D03*
X3173988Y287272D03*
X3168988Y287272D03*
X3163988Y287272D03*
X3158988Y287272D03*
X3153988Y287272D03*
X3148988Y287272D03*
D20*
X3134108Y272392D03*
X3134108Y267392D03*
X3134108Y262392D03*
X3134108Y257392D03*
X3134108Y252392D03*
X3134108Y247392D03*
X3134108Y242392D03*
X3134108Y237392D03*
X3134108Y232392D03*
X3134108Y227392D03*
X3134108Y222392D03*
X3134108Y217392D03*
D19*
X3148988Y202512D03*
X3153988Y202512D03*
X3158988Y202512D03*
X3163988Y202512D03*
X3168988Y202512D03*
X3173988Y202512D03*
X3178988Y202512D03*
X3183988Y202512D03*
X3188988Y202512D03*
X3193988Y202512D03*
X3198988Y202512D03*
X3203988Y202512D03*
D20*
X3218868Y217392D03*
X3218868Y222392D03*
X3218868Y227392D03*
X3218868Y232392D03*
X3218868Y237392D03*
X3218868Y242392D03*
X3218868Y247392D03*
X3218868Y252392D03*
X3218868Y257392D03*
X3218868Y262392D03*
X3218868Y267392D03*
X3218868Y272392D03*
D17*
X3273550Y192920D03*
X3273550Y187920D03*
X3273550Y182920D03*
X3273550Y177920D03*
X3305050Y177920D03*
X3305050Y182920D03*
X3305050Y187920D03*
X3305050Y192920D03*
D21*
X3215960Y576580D03*
X3255960Y576580D03*
D22*
X46380Y749000D03*
X55880Y749000D03*
X65380Y749000D03*
X65380Y775000D03*
X55880Y775000D03*
X46380Y775000D03*
D23*
X196850Y594090D03*
X209550Y594090D03*
X222250Y594090D03*
D24*
X234950Y597090D03*
D25*
X234950Y654090D03*
X222250Y654090D03*
X209550Y654090D03*
X196850Y654090D03*
D26*
X215900Y631340D03*
D27*
X208750Y599590D03*
D22*
X127660Y749000D03*
X137160Y749000D03*
X146660Y749000D03*
X146660Y775000D03*
X137160Y775000D03*
X127660Y775000D03*
D23*
X567690Y594090D03*
X580390Y594090D03*
X593090Y594090D03*
D24*
X605790Y597090D03*
D25*
X605790Y654090D03*
X593090Y654090D03*
X580390Y654090D03*
X567690Y654090D03*
D26*
X586740Y631340D03*
D27*
X579590Y599590D03*
D11*
X3162719Y624840D03*
X3177121Y624840D03*
D10*
X3268980Y271361D03*
X3268980Y256959D03*
X383540Y503339D03*
X383540Y517741D03*
X40640Y902119D03*
X40640Y916521D03*
D11*
X63081Y792480D03*
X48679Y792480D03*
X66459Y988060D03*
X80861Y988060D03*
D10*
X25400Y764121D03*
X25400Y749719D03*
D11*
X271361Y596900D03*
X256959Y596900D03*
D28*
X210820Y542760D03*
X210820Y569760D03*
D10*
X419100Y523659D03*
X419100Y538061D03*
D11*
X3023019Y982980D03*
X3037421Y982980D03*
D10*
X144780Y902119D03*
X144780Y916521D03*
D11*
X144361Y792480D03*
X129959Y792480D03*
X452539Y988060D03*
X466941Y988060D03*
D10*
X106680Y764121D03*
X106680Y749719D03*
X632460Y582079D03*
X632460Y596481D03*
D28*
X581660Y542760D03*
X581660Y569760D03*
D11*
X3322739Y182880D03*
X3337141Y182880D03*
D10*
X541020Y78321D03*
X541020Y63919D03*
X541020Y113881D03*
X541020Y99479D03*
D11*
X3162719Y584200D03*
X3177121Y584200D03*
X3337979Y132080D03*
X3352381Y132080D03*
D10*
X3143504Y357975D03*
X3143504Y343573D03*
D11*
X3287179Y132080D03*
X3301581Y132080D03*
D10*
X3014980Y150279D03*
X3014980Y164681D03*
D11*
X3040799Y134620D03*
X3055201Y134620D03*
X3184817Y330454D03*
X3199219Y330454D03*
X3146133Y314452D03*
X3131731Y314452D03*
D29*
X3178740Y346600D03*
X3201740Y346600D03*
X3201740Y364600D03*
X3178740Y364600D03*
D10*
X462280Y523659D03*
X462280Y538061D03*
X482600Y523659D03*
X482600Y538061D03*
D11*
X838619Y937260D03*
X853021Y937260D03*
X2080679Y147320D03*
X2095081Y147320D03*
D10*
X927100Y1021499D03*
X927100Y1035901D03*
D12*
X1295400Y1029600D03*
X1295400Y1002400D03*
D11*
X2080679Y167640D03*
X2095081Y167640D03*
X795439Y868680D03*
X809841Y868680D03*
D10*
X1181100Y523659D03*
X1181100Y538061D03*
D11*
X876719Y868680D03*
X891121Y868680D03*
D17*
X779270Y855860D03*
X779270Y850860D03*
X779270Y845860D03*
X779270Y840860D03*
X810770Y840860D03*
X810770Y845860D03*
X810770Y850860D03*
X810770Y855860D03*
D18*
X2048100Y129130D03*
X2048100Y122630D03*
X2048100Y116130D03*
X2048100Y109630D03*
X2092100Y109630D03*
X2092100Y116130D03*
X2092100Y122630D03*
X2092100Y129130D03*
X808580Y919070D03*
X808580Y912570D03*
X808580Y906070D03*
X808580Y899570D03*
X852580Y899570D03*
X852580Y906070D03*
X852580Y912570D03*
X852580Y919070D03*
X1146400Y507590D03*
X1146400Y501090D03*
X1146400Y494590D03*
X1146400Y488090D03*
X1190400Y488090D03*
X1190400Y494590D03*
X1190400Y501090D03*
X1190400Y507590D03*
D17*
X860550Y855860D03*
X860550Y850860D03*
X860550Y845860D03*
X860550Y840860D03*
X892050Y840860D03*
X892050Y845860D03*
X892050Y850860D03*
X892050Y855860D03*
D22*
X782980Y749000D03*
X792480Y749000D03*
X801980Y749000D03*
X801980Y775000D03*
X792480Y775000D03*
X782980Y775000D03*
D23*
X933450Y594090D03*
X946150Y594090D03*
X958850Y594090D03*
D24*
X971550Y597090D03*
D25*
X971550Y654090D03*
X958850Y654090D03*
X946150Y654090D03*
X933450Y654090D03*
D26*
X952500Y631340D03*
D27*
X945350Y599590D03*
D22*
X864260Y749000D03*
X873760Y749000D03*
X883260Y749000D03*
X883260Y775000D03*
X873760Y775000D03*
X864260Y775000D03*
D23*
X1304290Y594090D03*
X1316990Y594090D03*
X1329690Y594090D03*
D24*
X1342390Y597090D03*
D25*
X1342390Y654090D03*
X1329690Y654090D03*
X1316990Y654090D03*
X1304290Y654090D03*
D26*
X1323340Y631340D03*
D27*
X1316190Y599590D03*
D10*
X1120140Y503339D03*
X1120140Y517741D03*
X777240Y902119D03*
X777240Y916521D03*
D11*
X799681Y792480D03*
X785279Y792480D03*
X803059Y988060D03*
X817461Y988060D03*
D10*
X762000Y764121D03*
X762000Y749719D03*
D11*
X1007961Y596900D03*
X993559Y596900D03*
D28*
X947420Y542760D03*
X947420Y569760D03*
D10*
X1155700Y523659D03*
X1155700Y538061D03*
X881380Y902119D03*
X881380Y916521D03*
D11*
X880961Y792480D03*
X866559Y792480D03*
X1189139Y988060D03*
X1203541Y988060D03*
D10*
X843280Y764121D03*
X843280Y749719D03*
X1369060Y582079D03*
X1369060Y596481D03*
D28*
X1318260Y542760D03*
X1318260Y569760D03*
D10*
X1198880Y523659D03*
X1198880Y538061D03*
X1219200Y523659D03*
X1219200Y538061D03*
D11*
X1575219Y937260D03*
X1589621Y937260D03*
X2426119Y147320D03*
X2440521Y147320D03*
D10*
X1663700Y1021499D03*
X1663700Y1035901D03*
D12*
X2032000Y1029600D03*
X2032000Y1002400D03*
D11*
X2426119Y167640D03*
X2440521Y167640D03*
X1532039Y868680D03*
X1546441Y868680D03*
D10*
X1917700Y523659D03*
X1917700Y538061D03*
D11*
X1613319Y868680D03*
X1627721Y868680D03*
D17*
X1515870Y855860D03*
X1515870Y850860D03*
X1515870Y845860D03*
X1515870Y840860D03*
X1547370Y840860D03*
X1547370Y845860D03*
X1547370Y850860D03*
X1547370Y855860D03*
D18*
X2393540Y129130D03*
X2393540Y122630D03*
X2393540Y116130D03*
X2393540Y109630D03*
X2437540Y109630D03*
X2437540Y116130D03*
X2437540Y122630D03*
X2437540Y129130D03*
X1545180Y919070D03*
X1545180Y912570D03*
X1545180Y906070D03*
X1545180Y899570D03*
X1589180Y899570D03*
X1589180Y906070D03*
X1589180Y912570D03*
X1589180Y919070D03*
X1883000Y507590D03*
X1883000Y501090D03*
X1883000Y494590D03*
X1883000Y488090D03*
X1927000Y488090D03*
X1927000Y494590D03*
X1927000Y501090D03*
X1927000Y507590D03*
D17*
X1597150Y855860D03*
X1597150Y850860D03*
X1597150Y845860D03*
X1597150Y840860D03*
X1628650Y840860D03*
X1628650Y845860D03*
X1628650Y850860D03*
X1628650Y855860D03*
D22*
X1519580Y749000D03*
X1529080Y749000D03*
X1538580Y749000D03*
X1538580Y775000D03*
X1529080Y775000D03*
X1519580Y775000D03*
D23*
X1670050Y594090D03*
X1682750Y594090D03*
X1695450Y594090D03*
D24*
X1708150Y597090D03*
D25*
X1708150Y654090D03*
X1695450Y654090D03*
X1682750Y654090D03*
X1670050Y654090D03*
D26*
X1689100Y631340D03*
D27*
X1681950Y599590D03*
D22*
X1600860Y749000D03*
X1610360Y749000D03*
X1619860Y749000D03*
X1619860Y775000D03*
X1610360Y775000D03*
X1600860Y775000D03*
D23*
X2040890Y594090D03*
X2053590Y594090D03*
X2066290Y594090D03*
D24*
X2078990Y597090D03*
D25*
X2078990Y654090D03*
X2066290Y654090D03*
X2053590Y654090D03*
X2040890Y654090D03*
D26*
X2059940Y631340D03*
D27*
X2052790Y599590D03*
D10*
X1856740Y503339D03*
X1856740Y517741D03*
X1513840Y902119D03*
X1513840Y916521D03*
D11*
X1536281Y792480D03*
X1521879Y792480D03*
X1539659Y988060D03*
X1554061Y988060D03*
D10*
X1498600Y764121D03*
X1498600Y749719D03*
D11*
X1744561Y596900D03*
X1730159Y596900D03*
D28*
X1684020Y542760D03*
X1684020Y569760D03*
D10*
X1892300Y523659D03*
X1892300Y538061D03*
X1617980Y902119D03*
X1617980Y916521D03*
D11*
X1617561Y792480D03*
X1603159Y792480D03*
X1925739Y988060D03*
X1940141Y988060D03*
D10*
X1579880Y764121D03*
X1579880Y749719D03*
X2105660Y582079D03*
X2105660Y596481D03*
D28*
X2054860Y542760D03*
X2054860Y569760D03*
D10*
X1935480Y523659D03*
X1935480Y538061D03*
X1955800Y523659D03*
X1955800Y538061D03*
D11*
X2311819Y937260D03*
X2326221Y937260D03*
X2771559Y147320D03*
X2785961Y147320D03*
D10*
X2400300Y1021499D03*
X2400300Y1035901D03*
D12*
X2768600Y1029600D03*
X2768600Y1002400D03*
D11*
X2771559Y167640D03*
X2785961Y167640D03*
X2268639Y868680D03*
X2283041Y868680D03*
D10*
X2654300Y523659D03*
X2654300Y538061D03*
D11*
X2349919Y868680D03*
X2364321Y868680D03*
D17*
X2252470Y855860D03*
X2252470Y850860D03*
X2252470Y845860D03*
X2252470Y840860D03*
X2283970Y840860D03*
X2283970Y845860D03*
X2283970Y850860D03*
X2283970Y855860D03*
D18*
X2738980Y129130D03*
X2738980Y122630D03*
X2738980Y116130D03*
X2738980Y109630D03*
X2782980Y109630D03*
X2782980Y116130D03*
X2782980Y122630D03*
X2782980Y129130D03*
X2281780Y919070D03*
X2281780Y912570D03*
X2281780Y906070D03*
X2281780Y899570D03*
X2325780Y899570D03*
X2325780Y906070D03*
X2325780Y912570D03*
X2325780Y919070D03*
X2619600Y507590D03*
X2619600Y501090D03*
X2619600Y494590D03*
X2619600Y488090D03*
X2663600Y488090D03*
X2663600Y494590D03*
X2663600Y501090D03*
X2663600Y507590D03*
D17*
X2333750Y855860D03*
X2333750Y850860D03*
X2333750Y845860D03*
X2333750Y840860D03*
X2365250Y840860D03*
X2365250Y845860D03*
X2365250Y850860D03*
X2365250Y855860D03*
D22*
X2256180Y749000D03*
X2265680Y749000D03*
X2275180Y749000D03*
X2275180Y775000D03*
X2265680Y775000D03*
X2256180Y775000D03*
D23*
X2406650Y594090D03*
X2419350Y594090D03*
X2432050Y594090D03*
D24*
X2444750Y597090D03*
D25*
X2444750Y654090D03*
X2432050Y654090D03*
X2419350Y654090D03*
X2406650Y654090D03*
D26*
X2425700Y631340D03*
D27*
X2418550Y599590D03*
D22*
X2337460Y749000D03*
X2346960Y749000D03*
X2356460Y749000D03*
X2356460Y775000D03*
X2346960Y775000D03*
X2337460Y775000D03*
D23*
X2777490Y594090D03*
X2790190Y594090D03*
X2802890Y594090D03*
D24*
X2815590Y597090D03*
D25*
X2815590Y654090D03*
X2802890Y654090D03*
X2790190Y654090D03*
X2777490Y654090D03*
D26*
X2796540Y631340D03*
D27*
X2789390Y599590D03*
D10*
X2593340Y503339D03*
X2593340Y517741D03*
X2250440Y902119D03*
X2250440Y916521D03*
D11*
X2272881Y792480D03*
X2258479Y792480D03*
X2276259Y988060D03*
X2290661Y988060D03*
D10*
X2235200Y764121D03*
X2235200Y749719D03*
D11*
X2481161Y596900D03*
X2466759Y596900D03*
D28*
X2420620Y542760D03*
X2420620Y569760D03*
D10*
X2628900Y523659D03*
X2628900Y538061D03*
X2354580Y902119D03*
X2354580Y916521D03*
D11*
X2354161Y792480D03*
X2339759Y792480D03*
X2662339Y988060D03*
X2676741Y988060D03*
D10*
X2316480Y764121D03*
X2316480Y749719D03*
X2842260Y582079D03*
X2842260Y596481D03*
D28*
X2791460Y542760D03*
X2791460Y569760D03*
D10*
X2672080Y523659D03*
X2672080Y538061D03*
X2692400Y523659D03*
X2692400Y538061D03*
M02*
