G04 EAGLE Gerber RS-274X export*
G75*
%MOMM*%
%FSLAX34Y34*%
%LPD*%
%INSoldermask Top*%
%IPPOS*%
%AMOC8*
5,1,8,0,0,1.08239X$1,22.5*%
G01*
%ADD10R,1.244600X1.016000*%
%ADD11R,1.016000X1.244600*%
%ADD12R,1.983200X1.273200*%
%ADD13R,1.273200X1.983200*%
%ADD14R,1.003200X1.353200*%
%ADD15R,1.323200X1.443200*%
%ADD16C,1.868200*%
%ADD17C,2.743200*%
%ADD18R,1.253200X0.753200*%
%ADD19R,1.053200X0.503200*%
%ADD20R,1.603200X0.653200*%
%ADD21R,0.503200X1.678200*%
%ADD22R,1.678200X0.503200*%
%ADD23C,1.958200*%
%ADD24C,3.653200*%
%ADD25C,1.473200*%
%ADD26C,2.203200*%
%ADD27C,1.828800*%
%ADD28C,1.727200*%
%ADD29C,2.235200*%
%ADD30R,2.003200X2.003200*%
%ADD31C,2.003200*%
%ADD32R,1.854200X1.854200*%
%ADD33C,1.854200*%
%ADD34R,2.503200X4.203200*%
%ADD35C,2.362200*%
%ADD36C,3.505200*%
%ADD37R,0.753200X1.253200*%
%ADD38R,0.703200X0.703200*%
%ADD39R,0.703200X1.303200*%
%ADD40R,0.803200X1.003200*%
%ADD41R,4.613200X3.953200*%
%ADD42R,3.403200X0.803200*%
%ADD43C,1.472200*%
%ADD44R,6.703200X1.553200*%
%ADD45C,1.838200*%
%ADD46R,1.727200X1.727200*%
%ADD47R,1.503200X1.303200*%
%ADD48C,1.349603*%

G36*
X2998992Y903920D02*
X2998992Y903920D01*
X2999035Y903932D01*
X2999101Y903939D01*
X3000784Y904390D01*
X3000825Y904409D01*
X3000888Y904428D01*
X3002468Y905165D01*
X3002505Y905191D01*
X3002564Y905220D01*
X3003992Y906220D01*
X3004023Y906252D01*
X3004076Y906291D01*
X3005309Y907524D01*
X3005334Y907560D01*
X3005380Y907608D01*
X3006380Y909036D01*
X3006398Y909077D01*
X3006435Y909132D01*
X3007172Y910712D01*
X3007183Y910755D01*
X3007210Y910816D01*
X3007661Y912499D01*
X3007663Y912531D01*
X3007670Y912552D01*
X3007670Y912567D01*
X3007680Y912608D01*
X3007832Y914345D01*
X3007828Y914389D01*
X3007832Y914455D01*
X3007680Y916192D01*
X3007668Y916235D01*
X3007661Y916301D01*
X3007210Y917984D01*
X3007191Y918025D01*
X3007172Y918088D01*
X3006435Y919668D01*
X3006409Y919705D01*
X3006380Y919764D01*
X3005380Y921192D01*
X3005348Y921223D01*
X3005309Y921276D01*
X3004076Y922509D01*
X3004040Y922534D01*
X3003992Y922580D01*
X3002564Y923580D01*
X3002523Y923598D01*
X3002468Y923635D01*
X3000888Y924372D01*
X3000845Y924383D01*
X3000784Y924410D01*
X2999101Y924861D01*
X2999056Y924864D01*
X2998992Y924880D01*
X2997255Y925032D01*
X2997211Y925028D01*
X2997145Y925032D01*
X2995408Y924880D01*
X2995365Y924868D01*
X2995299Y924861D01*
X2993616Y924410D01*
X2993575Y924391D01*
X2993512Y924372D01*
X2991932Y923635D01*
X2991895Y923609D01*
X2991836Y923580D01*
X2990408Y922580D01*
X2990377Y922548D01*
X2990324Y922509D01*
X2989091Y921276D01*
X2989066Y921240D01*
X2989020Y921192D01*
X2988020Y919764D01*
X2988002Y919723D01*
X2987965Y919668D01*
X2987228Y918088D01*
X2987217Y918045D01*
X2987190Y917984D01*
X2986739Y916301D01*
X2986736Y916256D01*
X2986720Y916192D01*
X2986568Y914455D01*
X2986572Y914411D01*
X2986568Y914345D01*
X2986720Y912608D01*
X2986732Y912565D01*
X2986736Y912531D01*
X2986736Y912515D01*
X2986738Y912510D01*
X2986739Y912499D01*
X2987190Y910816D01*
X2987209Y910775D01*
X2987228Y910712D01*
X2987965Y909132D01*
X2987991Y909095D01*
X2988020Y909036D01*
X2989020Y907608D01*
X2989052Y907577D01*
X2989091Y907524D01*
X2990324Y906291D01*
X2990360Y906266D01*
X2990408Y906220D01*
X2991836Y905220D01*
X2991877Y905202D01*
X2991932Y905165D01*
X2993512Y904428D01*
X2993555Y904417D01*
X2993616Y904390D01*
X2995299Y903939D01*
X2995344Y903936D01*
X2995408Y903920D01*
X2997145Y903768D01*
X2997189Y903772D01*
X2997255Y903768D01*
X2998992Y903920D01*
G37*
G36*
X128792Y116520D02*
X128792Y116520D01*
X128835Y116532D01*
X128901Y116539D01*
X130584Y116990D01*
X130625Y117009D01*
X130688Y117028D01*
X132268Y117765D01*
X132305Y117791D01*
X132364Y117820D01*
X133792Y118820D01*
X133823Y118852D01*
X133876Y118891D01*
X135109Y120124D01*
X135134Y120160D01*
X135180Y120208D01*
X136180Y121636D01*
X136198Y121677D01*
X136235Y121732D01*
X136972Y123312D01*
X136983Y123355D01*
X137010Y123416D01*
X137461Y125099D01*
X137463Y125131D01*
X137470Y125152D01*
X137470Y125167D01*
X137480Y125208D01*
X137632Y126945D01*
X137628Y126989D01*
X137632Y127055D01*
X137480Y128792D01*
X137468Y128835D01*
X137461Y128901D01*
X137010Y130584D01*
X136991Y130625D01*
X136972Y130688D01*
X136235Y132268D01*
X136209Y132305D01*
X136180Y132364D01*
X135180Y133792D01*
X135148Y133823D01*
X135109Y133876D01*
X133876Y135109D01*
X133840Y135134D01*
X133792Y135180D01*
X132364Y136180D01*
X132323Y136198D01*
X132268Y136235D01*
X130688Y136972D01*
X130645Y136983D01*
X130584Y137010D01*
X128901Y137461D01*
X128856Y137464D01*
X128792Y137480D01*
X127055Y137632D01*
X127011Y137628D01*
X126945Y137632D01*
X125208Y137480D01*
X125165Y137468D01*
X125099Y137461D01*
X123416Y137010D01*
X123375Y136991D01*
X123312Y136972D01*
X121732Y136235D01*
X121695Y136209D01*
X121636Y136180D01*
X120208Y135180D01*
X120177Y135148D01*
X120124Y135109D01*
X118891Y133876D01*
X118866Y133840D01*
X118820Y133792D01*
X117820Y132364D01*
X117802Y132323D01*
X117765Y132268D01*
X117028Y130688D01*
X117017Y130645D01*
X116990Y130584D01*
X116539Y128901D01*
X116536Y128856D01*
X116520Y128792D01*
X116368Y127055D01*
X116372Y127011D01*
X116368Y126945D01*
X116520Y125208D01*
X116532Y125165D01*
X116536Y125131D01*
X116536Y125115D01*
X116538Y125110D01*
X116539Y125099D01*
X116990Y123416D01*
X117009Y123375D01*
X117028Y123312D01*
X117765Y121732D01*
X117791Y121695D01*
X117820Y121636D01*
X118820Y120208D01*
X118852Y120177D01*
X118891Y120124D01*
X120124Y118891D01*
X120160Y118866D01*
X120208Y118820D01*
X121636Y117820D01*
X121677Y117802D01*
X121732Y117765D01*
X123312Y117028D01*
X123355Y117017D01*
X123416Y116990D01*
X125099Y116539D01*
X125144Y116536D01*
X125208Y116520D01*
X126945Y116368D01*
X126989Y116372D01*
X127055Y116368D01*
X128792Y116520D01*
G37*
G36*
X3329192Y65720D02*
X3329192Y65720D01*
X3329235Y65732D01*
X3329301Y65739D01*
X3330984Y66190D01*
X3331025Y66209D01*
X3331088Y66228D01*
X3332668Y66965D01*
X3332705Y66991D01*
X3332764Y67020D01*
X3334192Y68020D01*
X3334223Y68052D01*
X3334276Y68091D01*
X3335509Y69324D01*
X3335534Y69360D01*
X3335580Y69408D01*
X3336580Y70836D01*
X3336598Y70877D01*
X3336635Y70932D01*
X3337372Y72512D01*
X3337383Y72555D01*
X3337410Y72616D01*
X3337861Y74299D01*
X3337863Y74331D01*
X3337870Y74352D01*
X3337870Y74367D01*
X3337880Y74408D01*
X3338032Y76145D01*
X3338028Y76189D01*
X3338032Y76255D01*
X3337880Y77992D01*
X3337868Y78035D01*
X3337861Y78101D01*
X3337410Y79784D01*
X3337391Y79825D01*
X3337372Y79888D01*
X3336635Y81468D01*
X3336609Y81505D01*
X3336580Y81564D01*
X3335580Y82992D01*
X3335548Y83023D01*
X3335509Y83076D01*
X3334276Y84309D01*
X3334240Y84334D01*
X3334192Y84380D01*
X3332764Y85380D01*
X3332723Y85398D01*
X3332668Y85435D01*
X3331088Y86172D01*
X3331045Y86183D01*
X3330984Y86210D01*
X3329301Y86661D01*
X3329256Y86664D01*
X3329192Y86680D01*
X3327455Y86832D01*
X3327411Y86828D01*
X3327345Y86832D01*
X3325608Y86680D01*
X3325565Y86668D01*
X3325499Y86661D01*
X3323816Y86210D01*
X3323775Y86191D01*
X3323712Y86172D01*
X3322132Y85435D01*
X3322095Y85409D01*
X3322036Y85380D01*
X3320608Y84380D01*
X3320577Y84348D01*
X3320524Y84309D01*
X3319291Y83076D01*
X3319266Y83040D01*
X3319220Y82992D01*
X3318220Y81564D01*
X3318202Y81523D01*
X3318165Y81468D01*
X3317428Y79888D01*
X3317417Y79845D01*
X3317390Y79784D01*
X3316939Y78101D01*
X3316936Y78056D01*
X3316920Y77992D01*
X3316768Y76255D01*
X3316772Y76211D01*
X3316768Y76145D01*
X3316920Y74408D01*
X3316932Y74365D01*
X3316936Y74331D01*
X3316936Y74315D01*
X3316938Y74310D01*
X3316939Y74299D01*
X3317390Y72616D01*
X3317409Y72575D01*
X3317428Y72512D01*
X3318165Y70932D01*
X3318191Y70895D01*
X3318220Y70836D01*
X3319220Y69408D01*
X3319252Y69377D01*
X3319291Y69324D01*
X3320524Y68091D01*
X3320560Y68066D01*
X3320608Y68020D01*
X3322036Y67020D01*
X3322077Y67002D01*
X3322132Y66965D01*
X3323712Y66228D01*
X3323755Y66217D01*
X3323816Y66190D01*
X3325499Y65739D01*
X3325544Y65736D01*
X3325608Y65720D01*
X3327345Y65568D01*
X3327389Y65572D01*
X3327455Y65568D01*
X3329192Y65720D01*
G37*
D10*
X3014980Y192621D03*
X3014980Y178219D03*
D11*
X3208439Y487680D03*
X3222841Y487680D03*
X102019Y937260D03*
X116421Y937260D03*
X1735239Y147320D03*
X1749641Y147320D03*
D10*
X190500Y1021499D03*
X190500Y1035901D03*
D12*
X558800Y1029600D03*
X558800Y1002400D03*
D11*
X1735239Y167640D03*
X1749641Y167640D03*
X58839Y868680D03*
X73241Y868680D03*
D10*
X444500Y523659D03*
X444500Y538061D03*
D11*
X140119Y868680D03*
X154521Y868680D03*
X3208439Y505460D03*
X3222841Y505460D03*
D10*
X3215640Y183299D03*
X3215640Y197701D03*
X3233420Y264579D03*
X3233420Y278981D03*
X3126740Y357721D03*
X3126740Y343319D03*
X3201416Y395821D03*
X3201416Y381419D03*
X3178810Y396075D03*
X3178810Y381673D03*
D11*
X3038259Y198120D03*
X3052661Y198120D03*
X3172041Y313944D03*
X3157639Y313944D03*
D10*
X3115564Y213271D03*
X3115564Y227673D03*
D11*
X3337141Y200660D03*
X3322739Y200660D03*
X1072299Y53340D03*
X1086701Y53340D03*
D10*
X3192780Y579539D03*
X3192780Y593941D03*
D13*
X3166480Y528320D03*
X3193680Y528320D03*
D11*
X3215729Y868934D03*
X3201327Y868934D03*
X3165767Y868934D03*
X3180169Y868934D03*
X3162719Y604520D03*
X3177121Y604520D03*
X3208439Y541020D03*
X3222841Y541020D03*
X3208439Y523240D03*
X3222841Y523240D03*
D14*
X3159760Y379958D03*
X3159760Y344958D03*
D15*
X497840Y66280D03*
X497840Y96280D03*
D16*
X1087120Y91440D03*
X1061720Y91440D03*
X1036320Y91440D03*
X1010920Y91440D03*
X985520Y91440D03*
X960120Y91440D03*
X934720Y91440D03*
X909320Y91440D03*
X883920Y91440D03*
X858520Y91440D03*
X833120Y91440D03*
X807720Y91440D03*
X782320Y91440D03*
X756920Y91440D03*
X731520Y91440D03*
X706120Y91440D03*
X680720Y91440D03*
X655320Y91440D03*
X629920Y91440D03*
X604520Y91440D03*
D17*
X1261110Y238760D03*
X1261110Y137160D03*
X430530Y238760D03*
X430530Y137160D03*
D18*
X3167080Y565760D03*
X3167080Y556260D03*
X3167080Y546760D03*
X3193080Y546760D03*
X3193080Y556260D03*
X3193080Y565760D03*
D19*
X42670Y855860D03*
X42670Y850860D03*
X42670Y845860D03*
X42670Y840860D03*
X74170Y840860D03*
X74170Y845860D03*
X74170Y850860D03*
X74170Y855860D03*
D20*
X1702660Y129130D03*
X1702660Y122630D03*
X1702660Y116130D03*
X1702660Y109630D03*
X1746660Y109630D03*
X1746660Y116130D03*
X1746660Y122630D03*
X1746660Y129130D03*
X71980Y919070D03*
X71980Y912570D03*
X71980Y906070D03*
X71980Y899570D03*
X115980Y899570D03*
X115980Y906070D03*
X115980Y912570D03*
X115980Y919070D03*
X409800Y507590D03*
X409800Y501090D03*
X409800Y494590D03*
X409800Y488090D03*
X453800Y488090D03*
X453800Y494590D03*
X453800Y501090D03*
X453800Y507590D03*
D19*
X123950Y855860D03*
X123950Y850860D03*
X123950Y845860D03*
X123950Y840860D03*
X155450Y840860D03*
X155450Y845860D03*
X155450Y850860D03*
X155450Y855860D03*
D20*
X3168748Y845664D03*
X3168748Y839164D03*
X3168748Y832664D03*
X3168748Y826164D03*
X3212748Y826164D03*
X3212748Y832664D03*
X3212748Y839164D03*
X3212748Y845664D03*
D19*
X3066290Y167760D03*
X3066290Y172760D03*
X3066290Y177760D03*
X3066290Y182760D03*
X3034790Y182760D03*
X3034790Y177760D03*
X3034790Y172760D03*
X3034790Y167760D03*
D21*
X3203988Y287272D03*
X3198988Y287272D03*
X3193988Y287272D03*
X3188988Y287272D03*
X3183988Y287272D03*
X3178988Y287272D03*
X3173988Y287272D03*
X3168988Y287272D03*
X3163988Y287272D03*
X3158988Y287272D03*
X3153988Y287272D03*
X3148988Y287272D03*
D22*
X3134108Y272392D03*
X3134108Y267392D03*
X3134108Y262392D03*
X3134108Y257392D03*
X3134108Y252392D03*
X3134108Y247392D03*
X3134108Y242392D03*
X3134108Y237392D03*
X3134108Y232392D03*
X3134108Y227392D03*
X3134108Y222392D03*
X3134108Y217392D03*
D21*
X3148988Y202512D03*
X3153988Y202512D03*
X3158988Y202512D03*
X3163988Y202512D03*
X3168988Y202512D03*
X3173988Y202512D03*
X3178988Y202512D03*
X3183988Y202512D03*
X3188988Y202512D03*
X3193988Y202512D03*
X3198988Y202512D03*
X3203988Y202512D03*
D22*
X3218868Y217392D03*
X3218868Y222392D03*
X3218868Y227392D03*
X3218868Y232392D03*
X3218868Y237392D03*
X3218868Y242392D03*
X3218868Y247392D03*
X3218868Y252392D03*
X3218868Y257392D03*
X3218868Y262392D03*
X3218868Y267392D03*
X3218868Y272392D03*
D19*
X3273550Y192920D03*
X3273550Y187920D03*
X3273550Y182920D03*
X3273550Y177920D03*
X3305050Y177920D03*
X3305050Y182920D03*
X3305050Y187920D03*
X3305050Y192920D03*
D23*
X3352800Y100076D03*
X3327400Y100076D03*
X3302000Y100076D03*
D24*
X3288000Y13676D03*
X3366800Y13676D03*
D25*
X91948Y1021080D03*
X66548Y1021080D03*
D26*
X41148Y1071880D03*
X142748Y1071880D03*
D27*
X259080Y1100836D03*
X265430Y1083310D03*
X286766Y1083310D03*
X293116Y1100836D03*
D28*
X308610Y1118362D03*
D29*
X226060Y1085850D03*
X326136Y1085850D03*
D28*
X243586Y1053338D03*
D25*
X460248Y1021080D03*
X434848Y1021080D03*
D26*
X409448Y1071880D03*
X511048Y1071880D03*
D27*
X627380Y1100836D03*
X633730Y1083310D03*
X655066Y1083310D03*
X661416Y1100836D03*
D28*
X676910Y1118362D03*
D29*
X594360Y1085850D03*
X694436Y1085850D03*
D28*
X611886Y1053338D03*
D30*
X3215640Y1043940D03*
D31*
X3215640Y1069340D03*
X3241040Y1043940D03*
X3241040Y1069340D03*
X3266440Y1043940D03*
X3266440Y1069340D03*
X3291840Y1043940D03*
X3291840Y1069340D03*
X3317240Y1043940D03*
X3317240Y1069340D03*
D25*
X3038348Y1021080D03*
X3012948Y1021080D03*
D26*
X2987548Y1071880D03*
X3089148Y1071880D03*
D32*
X3365500Y523240D03*
D33*
X3365500Y548640D03*
D32*
X327660Y124460D03*
D33*
X353060Y124460D03*
D32*
X3365500Y198120D03*
D33*
X3365500Y223520D03*
X3365500Y248920D03*
X3365500Y274320D03*
X3365500Y299720D03*
X3365500Y325120D03*
D34*
X3215960Y576580D03*
X3255960Y576580D03*
D35*
X2984500Y736600D03*
X2984500Y698500D03*
X2984500Y660400D03*
X2984500Y622300D03*
X2984500Y584200D03*
X2984500Y546100D03*
X2984500Y508000D03*
X2984500Y469900D03*
D36*
X2857500Y927100D03*
X1702816Y927100D03*
X1702816Y278130D03*
X2857500Y278130D03*
D37*
X46380Y749000D03*
X55880Y749000D03*
X65380Y749000D03*
X65380Y775000D03*
X55880Y775000D03*
X46380Y775000D03*
D38*
X196850Y594090D03*
X209550Y594090D03*
X222250Y594090D03*
D39*
X234950Y597090D03*
D40*
X234950Y654090D03*
X222250Y654090D03*
X209550Y654090D03*
X196850Y654090D03*
D41*
X215900Y631340D03*
D42*
X208750Y599590D03*
D37*
X127660Y749000D03*
X137160Y749000D03*
X146660Y749000D03*
X146660Y775000D03*
X137160Y775000D03*
X127660Y775000D03*
D38*
X567690Y594090D03*
X580390Y594090D03*
X593090Y594090D03*
D39*
X605790Y597090D03*
D40*
X605790Y654090D03*
X593090Y654090D03*
X580390Y654090D03*
X567690Y654090D03*
D41*
X586740Y631340D03*
D42*
X579590Y599590D03*
D11*
X3162719Y624840D03*
X3177121Y624840D03*
D10*
X3268980Y271361D03*
X3268980Y256959D03*
X383540Y503339D03*
X383540Y517741D03*
X40640Y902119D03*
X40640Y916521D03*
D11*
X63081Y792480D03*
X48679Y792480D03*
X66459Y988060D03*
X80861Y988060D03*
D10*
X25400Y764121D03*
X25400Y749719D03*
D43*
X1653540Y160020D03*
X1628140Y83820D03*
X1653540Y33020D03*
D11*
X271361Y596900D03*
X256959Y596900D03*
D44*
X210820Y542760D03*
X210820Y569760D03*
D10*
X419100Y523659D03*
X419100Y538061D03*
D11*
X3023019Y982980D03*
X3037421Y982980D03*
D10*
X144780Y902119D03*
X144780Y916521D03*
D11*
X144361Y792480D03*
X129959Y792480D03*
X452539Y988060D03*
X466941Y988060D03*
D10*
X106680Y764121D03*
X106680Y749719D03*
D43*
X1826260Y160020D03*
X1800860Y83820D03*
X1826260Y33020D03*
D10*
X632460Y582079D03*
X632460Y596481D03*
D44*
X581660Y542760D03*
X581660Y569760D03*
D11*
X3322739Y182880D03*
X3337141Y182880D03*
D10*
X541020Y78321D03*
X541020Y63919D03*
X541020Y113881D03*
X541020Y99479D03*
D11*
X3162719Y584200D03*
X3177121Y584200D03*
X3337979Y132080D03*
X3352381Y132080D03*
D10*
X3143504Y357975D03*
X3143504Y343573D03*
D11*
X3287179Y132080D03*
X3301581Y132080D03*
D10*
X3014980Y150279D03*
X3014980Y164681D03*
D11*
X3040799Y134620D03*
X3055201Y134620D03*
X3184817Y330454D03*
X3199219Y330454D03*
X3146133Y314452D03*
X3131731Y314452D03*
D45*
X241300Y91440D03*
X190500Y91440D03*
X241300Y40640D03*
X190500Y40640D03*
X1501140Y91440D03*
X1450340Y91440D03*
X1501140Y40640D03*
X1450340Y40640D03*
D46*
X3017520Y30480D03*
D28*
X3017520Y55880D03*
X3042920Y30480D03*
X3042920Y55880D03*
X3068320Y30480D03*
X3068320Y55880D03*
X3093720Y30480D03*
X3093720Y55880D03*
X3119120Y30480D03*
X3119120Y55880D03*
X3144520Y30480D03*
X3144520Y55880D03*
X3169920Y30480D03*
X3169920Y55880D03*
X3195320Y30480D03*
X3195320Y55880D03*
D47*
X3178740Y346600D03*
X3201740Y346600D03*
X3201740Y364600D03*
X3178740Y364600D03*
D10*
X462280Y523659D03*
X462280Y538061D03*
X482600Y523659D03*
X482600Y538061D03*
D32*
X2984500Y254000D03*
D33*
X2984500Y228600D03*
X2984500Y203200D03*
X2984500Y177800D03*
X2984500Y152400D03*
X2984500Y127000D03*
D32*
X2984500Y406400D03*
D33*
X2984500Y381000D03*
X2984500Y355600D03*
X2984500Y330200D03*
X2984500Y304800D03*
X2984500Y279400D03*
D11*
X838619Y937260D03*
X853021Y937260D03*
X2080679Y147320D03*
X2095081Y147320D03*
D10*
X927100Y1021499D03*
X927100Y1035901D03*
D12*
X1295400Y1029600D03*
X1295400Y1002400D03*
D11*
X2080679Y167640D03*
X2095081Y167640D03*
X795439Y868680D03*
X809841Y868680D03*
D10*
X1181100Y523659D03*
X1181100Y538061D03*
D11*
X876719Y868680D03*
X891121Y868680D03*
D19*
X779270Y855860D03*
X779270Y850860D03*
X779270Y845860D03*
X779270Y840860D03*
X810770Y840860D03*
X810770Y845860D03*
X810770Y850860D03*
X810770Y855860D03*
D20*
X2048100Y129130D03*
X2048100Y122630D03*
X2048100Y116130D03*
X2048100Y109630D03*
X2092100Y109630D03*
X2092100Y116130D03*
X2092100Y122630D03*
X2092100Y129130D03*
X808580Y919070D03*
X808580Y912570D03*
X808580Y906070D03*
X808580Y899570D03*
X852580Y899570D03*
X852580Y906070D03*
X852580Y912570D03*
X852580Y919070D03*
X1146400Y507590D03*
X1146400Y501090D03*
X1146400Y494590D03*
X1146400Y488090D03*
X1190400Y488090D03*
X1190400Y494590D03*
X1190400Y501090D03*
X1190400Y507590D03*
D19*
X860550Y855860D03*
X860550Y850860D03*
X860550Y845860D03*
X860550Y840860D03*
X892050Y840860D03*
X892050Y845860D03*
X892050Y850860D03*
X892050Y855860D03*
D25*
X828548Y1021080D03*
X803148Y1021080D03*
D26*
X777748Y1071880D03*
X879348Y1071880D03*
D27*
X995680Y1100836D03*
X1002030Y1083310D03*
X1023366Y1083310D03*
X1029716Y1100836D03*
D28*
X1045210Y1118362D03*
D29*
X962660Y1085850D03*
X1062736Y1085850D03*
D28*
X980186Y1053338D03*
D25*
X1196848Y1021080D03*
X1171448Y1021080D03*
D26*
X1146048Y1071880D03*
X1247648Y1071880D03*
D27*
X1363980Y1100836D03*
X1370330Y1083310D03*
X1391666Y1083310D03*
X1398016Y1100836D03*
D28*
X1413510Y1118362D03*
D29*
X1330960Y1085850D03*
X1431036Y1085850D03*
D28*
X1348486Y1053338D03*
D37*
X782980Y749000D03*
X792480Y749000D03*
X801980Y749000D03*
X801980Y775000D03*
X792480Y775000D03*
X782980Y775000D03*
D38*
X933450Y594090D03*
X946150Y594090D03*
X958850Y594090D03*
D39*
X971550Y597090D03*
D40*
X971550Y654090D03*
X958850Y654090D03*
X946150Y654090D03*
X933450Y654090D03*
D41*
X952500Y631340D03*
D42*
X945350Y599590D03*
D37*
X864260Y749000D03*
X873760Y749000D03*
X883260Y749000D03*
X883260Y775000D03*
X873760Y775000D03*
X864260Y775000D03*
D38*
X1304290Y594090D03*
X1316990Y594090D03*
X1329690Y594090D03*
D39*
X1342390Y597090D03*
D40*
X1342390Y654090D03*
X1329690Y654090D03*
X1316990Y654090D03*
X1304290Y654090D03*
D41*
X1323340Y631340D03*
D42*
X1316190Y599590D03*
D10*
X1120140Y503339D03*
X1120140Y517741D03*
X777240Y902119D03*
X777240Y916521D03*
D11*
X799681Y792480D03*
X785279Y792480D03*
X803059Y988060D03*
X817461Y988060D03*
D10*
X762000Y764121D03*
X762000Y749719D03*
D43*
X1998980Y160020D03*
X1973580Y83820D03*
X1998980Y33020D03*
D11*
X1007961Y596900D03*
X993559Y596900D03*
D44*
X947420Y542760D03*
X947420Y569760D03*
D10*
X1155700Y523659D03*
X1155700Y538061D03*
X881380Y902119D03*
X881380Y916521D03*
D11*
X880961Y792480D03*
X866559Y792480D03*
X1189139Y988060D03*
X1203541Y988060D03*
D10*
X843280Y764121D03*
X843280Y749719D03*
D43*
X2171700Y160020D03*
X2146300Y83820D03*
X2171700Y33020D03*
D10*
X1369060Y582079D03*
X1369060Y596481D03*
D44*
X1318260Y542760D03*
X1318260Y569760D03*
D10*
X1198880Y523659D03*
X1198880Y538061D03*
X1219200Y523659D03*
X1219200Y538061D03*
D11*
X1575219Y937260D03*
X1589621Y937260D03*
X2426119Y147320D03*
X2440521Y147320D03*
D10*
X1663700Y1021499D03*
X1663700Y1035901D03*
D12*
X2032000Y1029600D03*
X2032000Y1002400D03*
D11*
X2426119Y167640D03*
X2440521Y167640D03*
X1532039Y868680D03*
X1546441Y868680D03*
D10*
X1917700Y523659D03*
X1917700Y538061D03*
D11*
X1613319Y868680D03*
X1627721Y868680D03*
D19*
X1515870Y855860D03*
X1515870Y850860D03*
X1515870Y845860D03*
X1515870Y840860D03*
X1547370Y840860D03*
X1547370Y845860D03*
X1547370Y850860D03*
X1547370Y855860D03*
D20*
X2393540Y129130D03*
X2393540Y122630D03*
X2393540Y116130D03*
X2393540Y109630D03*
X2437540Y109630D03*
X2437540Y116130D03*
X2437540Y122630D03*
X2437540Y129130D03*
X1545180Y919070D03*
X1545180Y912570D03*
X1545180Y906070D03*
X1545180Y899570D03*
X1589180Y899570D03*
X1589180Y906070D03*
X1589180Y912570D03*
X1589180Y919070D03*
X1883000Y507590D03*
X1883000Y501090D03*
X1883000Y494590D03*
X1883000Y488090D03*
X1927000Y488090D03*
X1927000Y494590D03*
X1927000Y501090D03*
X1927000Y507590D03*
D19*
X1597150Y855860D03*
X1597150Y850860D03*
X1597150Y845860D03*
X1597150Y840860D03*
X1628650Y840860D03*
X1628650Y845860D03*
X1628650Y850860D03*
X1628650Y855860D03*
D25*
X1565148Y1021080D03*
X1539748Y1021080D03*
D26*
X1514348Y1071880D03*
X1615948Y1071880D03*
D27*
X1732280Y1100836D03*
X1738630Y1083310D03*
X1759966Y1083310D03*
X1766316Y1100836D03*
D28*
X1781810Y1118362D03*
D29*
X1699260Y1085850D03*
X1799336Y1085850D03*
D28*
X1716786Y1053338D03*
D25*
X1933448Y1021080D03*
X1908048Y1021080D03*
D26*
X1882648Y1071880D03*
X1984248Y1071880D03*
D27*
X2100580Y1100836D03*
X2106930Y1083310D03*
X2128266Y1083310D03*
X2134616Y1100836D03*
D28*
X2150110Y1118362D03*
D29*
X2067560Y1085850D03*
X2167636Y1085850D03*
D28*
X2085086Y1053338D03*
D37*
X1519580Y749000D03*
X1529080Y749000D03*
X1538580Y749000D03*
X1538580Y775000D03*
X1529080Y775000D03*
X1519580Y775000D03*
D38*
X1670050Y594090D03*
X1682750Y594090D03*
X1695450Y594090D03*
D39*
X1708150Y597090D03*
D40*
X1708150Y654090D03*
X1695450Y654090D03*
X1682750Y654090D03*
X1670050Y654090D03*
D41*
X1689100Y631340D03*
D42*
X1681950Y599590D03*
D37*
X1600860Y749000D03*
X1610360Y749000D03*
X1619860Y749000D03*
X1619860Y775000D03*
X1610360Y775000D03*
X1600860Y775000D03*
D38*
X2040890Y594090D03*
X2053590Y594090D03*
X2066290Y594090D03*
D39*
X2078990Y597090D03*
D40*
X2078990Y654090D03*
X2066290Y654090D03*
X2053590Y654090D03*
X2040890Y654090D03*
D41*
X2059940Y631340D03*
D42*
X2052790Y599590D03*
D10*
X1856740Y503339D03*
X1856740Y517741D03*
X1513840Y902119D03*
X1513840Y916521D03*
D11*
X1536281Y792480D03*
X1521879Y792480D03*
X1539659Y988060D03*
X1554061Y988060D03*
D10*
X1498600Y764121D03*
X1498600Y749719D03*
D43*
X2344420Y160020D03*
X2319020Y83820D03*
X2344420Y33020D03*
D11*
X1744561Y596900D03*
X1730159Y596900D03*
D44*
X1684020Y542760D03*
X1684020Y569760D03*
D10*
X1892300Y523659D03*
X1892300Y538061D03*
X1617980Y902119D03*
X1617980Y916521D03*
D11*
X1617561Y792480D03*
X1603159Y792480D03*
X1925739Y988060D03*
X1940141Y988060D03*
D10*
X1579880Y764121D03*
X1579880Y749719D03*
D43*
X2517140Y160020D03*
X2491740Y83820D03*
X2517140Y33020D03*
D10*
X2105660Y582079D03*
X2105660Y596481D03*
D44*
X2054860Y542760D03*
X2054860Y569760D03*
D10*
X1935480Y523659D03*
X1935480Y538061D03*
X1955800Y523659D03*
X1955800Y538061D03*
D11*
X2311819Y937260D03*
X2326221Y937260D03*
X2771559Y147320D03*
X2785961Y147320D03*
D10*
X2400300Y1021499D03*
X2400300Y1035901D03*
D12*
X2768600Y1029600D03*
X2768600Y1002400D03*
D11*
X2771559Y167640D03*
X2785961Y167640D03*
X2268639Y868680D03*
X2283041Y868680D03*
D10*
X2654300Y523659D03*
X2654300Y538061D03*
D11*
X2349919Y868680D03*
X2364321Y868680D03*
D19*
X2252470Y855860D03*
X2252470Y850860D03*
X2252470Y845860D03*
X2252470Y840860D03*
X2283970Y840860D03*
X2283970Y845860D03*
X2283970Y850860D03*
X2283970Y855860D03*
D20*
X2738980Y129130D03*
X2738980Y122630D03*
X2738980Y116130D03*
X2738980Y109630D03*
X2782980Y109630D03*
X2782980Y116130D03*
X2782980Y122630D03*
X2782980Y129130D03*
X2281780Y919070D03*
X2281780Y912570D03*
X2281780Y906070D03*
X2281780Y899570D03*
X2325780Y899570D03*
X2325780Y906070D03*
X2325780Y912570D03*
X2325780Y919070D03*
X2619600Y507590D03*
X2619600Y501090D03*
X2619600Y494590D03*
X2619600Y488090D03*
X2663600Y488090D03*
X2663600Y494590D03*
X2663600Y501090D03*
X2663600Y507590D03*
D19*
X2333750Y855860D03*
X2333750Y850860D03*
X2333750Y845860D03*
X2333750Y840860D03*
X2365250Y840860D03*
X2365250Y845860D03*
X2365250Y850860D03*
X2365250Y855860D03*
D25*
X2301748Y1021080D03*
X2276348Y1021080D03*
D26*
X2250948Y1071880D03*
X2352548Y1071880D03*
D27*
X2468880Y1100836D03*
X2475230Y1083310D03*
X2496566Y1083310D03*
X2502916Y1100836D03*
D28*
X2518410Y1118362D03*
D29*
X2435860Y1085850D03*
X2535936Y1085850D03*
D28*
X2453386Y1053338D03*
D25*
X2670048Y1021080D03*
X2644648Y1021080D03*
D26*
X2619248Y1071880D03*
X2720848Y1071880D03*
D27*
X2837180Y1100836D03*
X2843530Y1083310D03*
X2864866Y1083310D03*
X2871216Y1100836D03*
D28*
X2886710Y1118362D03*
D29*
X2804160Y1085850D03*
X2904236Y1085850D03*
D28*
X2821686Y1053338D03*
D37*
X2256180Y749000D03*
X2265680Y749000D03*
X2275180Y749000D03*
X2275180Y775000D03*
X2265680Y775000D03*
X2256180Y775000D03*
D38*
X2406650Y594090D03*
X2419350Y594090D03*
X2432050Y594090D03*
D39*
X2444750Y597090D03*
D40*
X2444750Y654090D03*
X2432050Y654090D03*
X2419350Y654090D03*
X2406650Y654090D03*
D41*
X2425700Y631340D03*
D42*
X2418550Y599590D03*
D37*
X2337460Y749000D03*
X2346960Y749000D03*
X2356460Y749000D03*
X2356460Y775000D03*
X2346960Y775000D03*
X2337460Y775000D03*
D38*
X2777490Y594090D03*
X2790190Y594090D03*
X2802890Y594090D03*
D39*
X2815590Y597090D03*
D40*
X2815590Y654090D03*
X2802890Y654090D03*
X2790190Y654090D03*
X2777490Y654090D03*
D41*
X2796540Y631340D03*
D42*
X2789390Y599590D03*
D10*
X2593340Y503339D03*
X2593340Y517741D03*
X2250440Y902119D03*
X2250440Y916521D03*
D11*
X2272881Y792480D03*
X2258479Y792480D03*
X2276259Y988060D03*
X2290661Y988060D03*
D10*
X2235200Y764121D03*
X2235200Y749719D03*
D43*
X2689860Y160020D03*
X2664460Y83820D03*
X2689860Y33020D03*
D11*
X2481161Y596900D03*
X2466759Y596900D03*
D44*
X2420620Y542760D03*
X2420620Y569760D03*
D10*
X2628900Y523659D03*
X2628900Y538061D03*
X2354580Y902119D03*
X2354580Y916521D03*
D11*
X2354161Y792480D03*
X2339759Y792480D03*
X2662339Y988060D03*
X2676741Y988060D03*
D10*
X2316480Y764121D03*
X2316480Y749719D03*
D43*
X2862580Y160020D03*
X2837180Y83820D03*
X2862580Y33020D03*
D10*
X2842260Y582079D03*
X2842260Y596481D03*
D44*
X2791460Y542760D03*
X2791460Y569760D03*
D10*
X2672080Y523659D03*
X2672080Y538061D03*
X2692400Y523659D03*
X2692400Y538061D03*
D32*
X3365500Y762000D03*
D33*
X3365500Y787400D03*
D36*
X2921000Y76200D03*
X3048000Y317500D03*
X1422400Y939800D03*
X3225800Y939800D03*
X1397000Y76200D03*
X76200Y76200D03*
D48*
X3134614Y923036D03*
X175260Y1021080D03*
X581660Y1003300D03*
X911860Y1021080D03*
X1318260Y1003300D03*
X1648460Y1021080D03*
X2054860Y1003300D03*
X2385060Y1021080D03*
X2791460Y1003300D03*
X3112008Y910082D03*
X3026747Y90678D03*
X2986024Y64008D03*
X3146298Y96266D03*
X3111500Y78740D03*
X3006598Y81280D03*
M02*
